<?xml version="1.0" standalone="no"?>
<!DOCTYPE svg PUBLIC "-//W3C//DTD SVG 1.1//EN" "http://www.w3.org/Graphics/SVG/1.1/DTD/svg11.dtd">
<svg xmlns="http://www.w3.org/2000/svg">
<metadata>Copyright (C) 2023 by original authors @ fontello.com</metadata>
<defs>
<font id="porto" horiz-adv-x="1000" >
<font-face font-family="porto" font-weight="400" font-stretch="normal" units-per-em="1000" ascent="850" descent="-150" />
<missing-glyph horiz-adv-x="1000" />
<glyph glyph-name="cart-thick" unicode="&#xe700;" d="M458 826c-24-4-45-9-65-17l3 1c-61-23-113-65-151-122-13-20-32-57-39-77l-5-13h-193l1-328c0-305 1-329 3-337 7-24 18-40 36-57 14-13 31-22 50-27 13-3 18-3 407-3l394 1 15 5c34 12 60 39 72 72v1l5 12v330l1 331h-196l-5 13c-10 25-21 46-33 67l1-2c-51 82-132 137-221 149-19 3-61 3-80 1z m75-67c77-14 140-62 181-140 5-9 9-18 9-19 0-2-55-2-225-2-151 0-225 0-225 2 0 0 4 9 9 19 39 77 103 127 178 140 18 3 55 3 73 0z m-350-235c-4-21-6-46-7-72v-1l-1-28h67v10c0 23 5 79 9 94l1 4h247c136 0 248 0 248 0s2-12 4-25c2-14 5-39 6-56l2-31h66v12c0 18-3 54-7 76-1 12-3 22-3 23s20 1 55 1h55v-292c-1-281-1-292-4-298-6-10-17-21-27-25-9-3-11-3-393-3-420 0-390-1-405 9-9 6-17 20-19 31-1 7-2 96-2 294v284h109l-1-7z" horiz-adv-x="1000" />

<glyph glyph-name="check-circle" unicode="&#xe701;" d="M914 390q-15 0-25-10t-10-24v-41q0-109-55-202-53-90-144-143-93-55-202-55v0q-80 0-153 30t-130 87-87 130-30 154q0 108 55 201 53 91 144 144 93 55 201 55h1q84 0 162-35 13-6 27-1t19 18 1 27-18 20q-90 40-191 40h-1q-127 0-237-64-106-62-169-168-64-110-64-237 0-94 36-180t102-153 152-103 180-35v0q127 0 237 64 106 63 169 169 64 110 64 237v41q0 14-10 24t-24 10z m68 341q-10 11-24 11t-26-11l-454-454-106 106q-10 11-24 11t-24-11-11-24 10-25l131-131q10-10 24-10t25 10l479 479q10 11 10 25t-10 24z" horiz-adv-x="1000" />

<glyph glyph-name="envelope" unicode="&#xe702;" d="M866 636h-732q-33 0-61-17t-44-44-17-61v-397q0-33 17-61t44-45 61-16h732q33 0 61 16t45 45 16 61v397q0 33-16 61t-45 44-61 17z m-793-160l213-161-213-160v321z m793-420h-732q-25 0-43 18t-18 43l239 179 133-100q24-18 55-18t55 18l133 100 239-179q0-25-17-43t-44-18z m61 99l-213 160 213 161v-321z m-390 66q-16-12-36-12t-38 12l-390 293q0 25 18 43t43 18h732q25 0 43-18t18-43z" horiz-adv-x="1000" />

<glyph glyph-name="business-book" unicode="&#xe703;" d="M677 783h-671v-935h671q37 0 63 26t26 63v757q0 37-26 63t-63 26z m-610-61h56v-813h-56v813z m638-785q0-12-8-20t-20-8h-493v813h493q12 0 20-9t8-19v-757z m-466 494h411v235h-411v-235z m61 174h289v-114h-289v114z m145-463h174v-61h-174v61z m-117-116h291v-61h-291v61z" horiz-adv-x="772.5" />

<glyph glyph-name="long-arrow-right" unicode="&#xe704;" d="M617 449l-22-21 97-97h-671v-31h671l-97-97 22-22 134 134z" horiz-adv-x="772.5" />

<glyph glyph-name="percent-shape" unicode="&#xe705;" d="M380 427q0 29-14 53t-39 39-53 14-53-14-38-39-14-53 14-53 38-38 53-14 53 14 39 38 14 53z m-150 0q0 19 13 32t31 13 32-13 13-32-13-32-32-12-31 13-13 31z m268-118q-28 0-52-15t-39-38-14-53 14-53 38-38 53-14 53 14 39 38 14 53-14 53-39 38-53 15z m0-150q-18 0-31 13t-13 31 13 31 31 14 32-13 13-32-13-32-32-12z m7 332q-10 7-22 5t-20-13l-204-301q-7-11-4-24t12-19q10-5 17-5 17 0 26 14l203 301q7 10 5 22t-13 20z m243-176q0 25 9 66v3q8 48 8 72 0 40-17 69t-54 50q-21 12-67 29h-1q-38 14-59 25-13 8-40 30l-9 8q-38 33-59 45-37 22-73 22t-73-22q-23-14-59-46l-7-6q-28-23-42-31-18-10-59-25v0q-47-17-68-29-37-20-54-50t-17-70q0-25 9-74l1-3q7-43 7-63t-7-59l-1-6q-9-49-9-74 0-41 17-71t54-50q22-13 68-29 38-12 59-24 16-9 49-38 37-32 59-45 37-22 73-22t71 21q21 12 58 43l4 3q33 29 48 38 25 13 59 24 45 16 68 29 37 21 54 50t17 70q0 24-8 72v3q-9 41-9 65z m-51-76q7-38 7-57 1-29-8-46t-35-29q-15-8-52-22l-13-5q-41-15-59-26-21-11-57-43l-1-1q-30-26-46-36-25-16-46-16t-47 15q-15 10-45 35l-3 3q-36 32-55 42t-57 26l-13 5q-38 14-54 22-26 14-36 30t-9 45q1 17 8 56l2 13q7 44 7 65t-7 67l-3 13q-6 38-7 55-1 28 9 44t36 31q16 8 54 22 44 15 69 29 17 10 48 36l14 12q29 25 44 34 24 15 45 15t46-16q15-10 46-37l8-7q32-27 50-37 25-14 69-29l3-1q37-14 52-22 25-13 35-30t8-45q0-19-7-57-10-50-10-77t10-76z" horiz-adv-x="772.5" />

<glyph glyph-name="sale-label" unicode="&#xe706;" d="M668 366h-102l-115 173q20 25 20 55 0 35-25 59t-60 25-59-25-25-59q0-32 20-55l-115-173h-102q-40 0-68-28t-29-69v-220q0-40 29-69t68-28h563q40 0 68 28t28 69v220q0 40-28 68t-68 29z m-282 264q16 0 27-11t10-25-10-26-26-11-27 10-11 26 11 26 26 11z m-25-117q11-4 25-4t25 4l98-147h-245z m356-464q0-20-14-35t-35-14h-563q-20 0-34 14t-15 35v220q0 20 15 34t34 15h563q20 0 35-15t14-34v-220z m-561 157q0 7 7 11t19 5 26-7q6-3 10-3 7 0 12 7t4 14q0 14-21 19-13 4-31 4-27 0-45-12-21-15-21-42 0-23 17-38 10-9 34-21 16-7 22-11 9-7 9-16t-7-13-17-4-18 4q-5 2-13 8-9 7-15 7t-11-8-6-14q0-13 19-24t44-10q29 0 47 15t18 42-19 44q-10 10-36 21-15 6-20 10-8 5-8 12z m191 37q-4 13-26 13-10 0-17-4t-10-9l-48-159v-2q0-7 8-12t18-5 13 8l9 32h54l9-32q3-8 13-8t18 5 8 12v2z m-45-107l19 70 19-70h-38z m209-36h-59v142q0 6-6 9t-14 4-14-4-7-9v-165q0-6 6-9t12-3h82q6 0 9 5t3 13-3 12-9 5z m138 119q6 0 9 5t3 13q0 18-12 18h-92q-7 0-12-4t-6-9v-165q0-6 6-9t12-3h92q6 0 9 5t3 12-3 13-9 5h-69v44h38q6 0 10 5t3 11-3 10-10 5h-38v44h69z" horiz-adv-x="772.5" />

<glyph glyph-name="help-circle" unicode="&#xe707;" d="M500 808q-133 0-248-67-111-66-177-177-67-115-67-249t67-248q66-112 177-177 115-67 248-67t248 67q111 66 177 177 67 115 67 248t-67 248q-66 112-177 177-115 68-248 68z m0-946q-123 0-229 62-102 60-162 163-62 105-62 228t62 229q60 102 162 162 106 62 229 62t229-62q102-60 162-162 62-106 62-229t-62-228q-60-103-162-163-106-62-229-62z m28 286h-53q-7 0-7-7v-61q0-7 7-7h53q7 0 7 7v61q0 7-7 7z m-22 413q-55 0-90-30t-43-82q-2-6 6-8l44-8q7 0 8 6 6 32 25 49t49 18 49-18 19-47q0-17-7-33t-26-42l-48-65q-11-16-16-28-5-15-5-35v-29q0-3 2-5t5-2h47q3 0 5 2t2 5v23q0 17 4 27t14 25l48 65q19 27 27 46 9 22 9 46 0 53-35 86t-93 34z" horiz-adv-x="1000" />

<glyph glyph-name="sale-discount" unicode="&#xe708;" d="M736 289q11 0 19 8t7 18v100q0 11-7 18t-19 8h-175q-11 0-18-8t-8-18v-50q0-10 8-18t19-8 18 8 7 18v24h123v-51q-33-8-54-36t-21-62 21-62 54-35v-51h-123v24q0 11-7 18t-18 8-19-8-8-18v-50q0-11 8-19t18-7h175q11 0 19 7t7 19v100q0 11-7 18t-19 8q-20 0-34 14t-15 34 15 34 34 15z m-224 126q0 11-7 18t-19 8h-449q-11 0-18-8t-8-18v-100q0-11 8-19t18-7q20 0 35-15t14-34-14-34-35-14q-11 0-18-8t-8-18v-100q0-11 8-19t18-7h449q11 0 19 7t7 19-7 18-19 8h-423v51q32 8 54 35t21 62-21 62-54 36v51h423q11 0 19 7t7 19z m-76-74h-249q-11 0-19-8t-8-18 8-19 19-7h249q11 0 19 7t7 19-7 18-19 8z m0-99h-125q-10 0-18-8t-8-18 8-19 18-8h125q11 0 19 8t7 19-7 18-19 8z m126 273v50q0 11-7 18t-18 8-19-8-8-18v-50q0-10 8-18t19-8 18 8 7 18z m-1-351q11 0 19 8t7 19v99q0 11-7 19t-19 8-18-8-8-19v-99q0-11 8-19t18-8z m50 300q10 0 18 8l25 25q8 8 8 18t-8 19-18 8-19-8l-25-25q-7-8-7-19t9-18 17-8z m-168 8q8-8 19-8t18 8 8 18-8 19l-25 25q-8 8-18 8t-18-8-8-18 7-19z" horiz-adv-x="772.5" />

<glyph glyph-name="shipping-truck" unicode="&#xe709;" d="M958 382l-81 109q-42 49-83 49h-157q-7 0-19-4v82q0 17-16 32-13 12-34 21-19 7-32 7h-470q-22 0-38-16t-17-39v-514q0-23 18-41t40-18h80q8-42 41-70t75-28 76 28 40 70h181q21 0 38 15 17-15 37-15h21q8-42 41-70t75-28q32 0 59 16t43 43 16 59-16 59-43 42-59 16q-43 0-75-28t-41-70h-21q-7 1-13 7t-6 13v372q0 7 6 13t13 7h157q11 0 25-9t27-26l3-5h-94q-24 0-41-18t-18-40v-79q0-23 18-41t41-17h195v-157q0-7-6-14t-13-6h-39v-39h39q23 0 41 18t18 41v188q0 36-31 83z m-184-234q32 0 55-23t23-55-23-55-55-23-55 23-23 55 23 55 55 23z m-509-156q-32 0-55 23t-23 55 23 55 55 23 55-23 23-55-23-55-55-23z m313 114q0-7-4-12t-12-5h-181q-8 42-40 70t-76 28-75-28-41-70h-80q-7 0-13 6t-6 14v514q0 7 5 11t11 5h470q10 0 25-8t17-13v-512z m177 199q-7 0-13 6t-7 13v79q0 8 7 13t13 6h124l47-63q6-9 13-22 9-18 11-32h-195z" horiz-adv-x="1000" />

<glyph glyph-name="user-3" unicode="&#xe70a;" d="M662 297q56 40 88 99t31 130q0 77-38 142-38 64-102 102t-141 38-140-38-103-102q-38-65-38-142 0-69 32-129t86-99l1-1q-96-28-171-93t-116-153q-43-91-43-193v0q0-14 11-25t24-10h914q14 0 25 10t10 25v0q0 102-43 193-41 88-115 152t-168 93z m-373 229q0 57 29 105t77 77 105 29 106-29 77-77 28-105-28-106-77-77-106-28v0q-57 0-105 28t-77 77-29 106v0z m-209-633q9 98 63 178t137 127q86 47 185 47h70q99 0 185-47 83-46 137-126t63-177v-2h-840z" horiz-adv-x="1000" />

<glyph glyph-name="long-arrow-alt" unicode="&#xe70b;" d="M717 585l-1 1-45-45 193-194h-850v-63h850l-193-194 45-45 270 270z" horiz-adv-x="1000" />

<glyph glyph-name="map-location" unicode="&#xe70c;" d="M500 631q-50 0-92-25t-68-68-25-92 25-93 68-67 92-24 93 24 67 67 25 93-25 92-67 68-93 25z m0-339q-42 0-77 20t-56 56-21 78 21 77 56 56 77 21 78-21 56-56 20-77-20-78-56-56-78-20z m0 516q-100 0-186-50-84-49-133-133-50-86-50-186t53-215q43-94 123-202 53-70 143-174v0q7-8 16-14 17-11 33-11h2q12 0 25 6 9 5 17 11t7 8q90 104 143 174 80 108 123 202 53 115 53 215t-50 186q-49 84-133 133-86 50-186 50z m4-920q-1 0-2-1l-3-2q0 2-4 4l-4 5q-84 97-128 155-77 102-119 189-52 109-52 200 0 84 42 155 41 70 111 111 71 42 155 42t155-42q70-41 111-111 42-71 42-155 0-91-53-200-41-87-119-189-44-59-128-156z" horiz-adv-x="1000" />

<glyph glyph-name="phone-call" unicode="&#xe70d;" d="M559 148v2q-19 30-54 43-37 13-69-5l-37-19q-51 106-86 224l40 11h2q34 11 53 44t10 68q-13 55-19 109v1q-6 36-33 61-29 26-66 22l-125-10q-56-3-91-47-23-29-33-71t-4-82v-1q61-318 226-585 19-33 52-56t67-31q17-3 31-3 43 0 78 26h1l100 77q1 1 2 1 28 24 33 61t-18 67q-30 43-60 93z m1-168l-99-76q-23-16-55-10-22 5-42 19t-32 36v0q-160 261-217 561-4 26 3 53t20 45q16 21 41 22l128 11q8 1 15-7t9-18q5-47 20-115v-1q2-9-3-18t-14-12l-73-19q-14-5-21-17t-3-26q43-157 116-301 6-13 20-18t27 3l68 35h1q6 4 16-1t15-12q18-32 62-99 1 0 1-1 5-7 5-17t-8-17z m-38 579q-14 3-26-5t-15-21 4-26 21-15q40-9 71-36t44-64q13-34 11-71t-21-68q-7-13-3-27t16-20q8-4 17-4t18 4 12 13q26 46 30 97t-15 101q-21 54-64 91t-100 51z m401-51q-44 113-135 192t-209 107q-14 3-26-5t-15-22 5-25 21-15q101-24 179-92t115-165q34-87 28-180t-53-175q-7-12-3-26t16-21q7-4 17-4 20 0 30 18 53 95 61 203t-31 210z" horiz-adv-x="1000" />

<glyph glyph-name="tablet" unicode="&#xe70e;" d="M746 808h-492q-38 0-65-28t-27-65v-800q0-38 27-65t65-27h492q38 0 65 27t27 65v800q0 38-27 65t-65 28z m31-893q0-13-9-22t-22-8h-492q-13 0-22 8t-9 22v62h554v-62z m0 93h-554v615h554v-615z m0 646h-554v61q0 13 9 22t22 9h492q13 0 22-9t9-22v-61z m-231 61h-92q-7 0-11-5t-4-11 4-10 11-4h92q7 0 12 4t4 10-4 11-12 5z m-61-799h30q7 0 12 4t4 10-4 11-12 5h-30q-7 0-11-5t-5-11 5-10 11-4z" horiz-adv-x="1000" />

<glyph glyph-name="spin1" unicode="&#xe800;" d="M496 807q-128 0-239-61-108-59-175-161-28-43-45-84-16-38-28-90v-3q0-5 3-9t8-3h99q4 0 7 2t4 7q22 83 78 148t133 101q24 13 62 23 50 10 93 10v0 0 0q37 0 73-6l14-3q4-1 9-3l5-1q3-1 7 0t5 6l52 87q2 5 0 9t-7 6q-38 12-64 17l-13 2q-32 6-81 6v0 0z m322-112q-8 0-11-6l-49-85q-2-3-1-7t3-7q44-43 72-99l11-22q29-72 29-149v0 0q0-56-15-109t-46-96q-13-21-23-33-15-18-28-30v0 0 0q-3-3-3-7t1-7l49-86q0-1 3-4t7-3 8 3q86 77 132 187 10 25 15 44 20 69 20 141 0 79-23 152t-67 135q-18 25-37 45l-7 7q-21 23-33 33v0q-1 1-2 1-4 2-5 2z m-798-460v0h-3q-4-1-7-5t-2-9q25-121 105-217t192-143q43-17 92-28 52-10 98-10v0 0q57 0 115 14 6 1 17 4l5 1 23 8q5 2 6 6t-2 9l-50 86q-4 8-12 6-21-6-42-9l-8-2q-25-3-52-3v0 0q-93 0-175 43-79 42-131 115h-1q-18 26-33 59t-25 65q-1 4-4 7t-7 3h-99z" horiz-adv-x="1000" />

<glyph glyph-name="spin2" unicode="&#xe801;" d="M53 113v0h-1q-10 26-19 53t-16 58q-14 73-5 148t39 145q2 4 7 5t8 0q2 0 2-1l79-58q4-2 5-6t-1-8q-7-18-12-36-6-20-9-40-17-101 23-197 3-8-4-13l-79-55q-4-3-8-2t-8 5q-1 0-1 2v0z m119 564v0 1q18 17 45 37 32 22 50 30 66 38 141 53t151 6q10-2 10-12l-31-95q-1-4-5-6t-8-1h-39q-26-2-40-4-105-17-183-82-3-2-7-2t-7 2l-77 57q-4 2-4 7t2 8z m578 64v0h1q24-13 49-31l30-24 16-13q55-52 93-118t52-140q1-4-1-8t-7-5l-101 1q-4 0-7 2t-4 7q-2 9-8 26l-4 11q-8 23-16 36-48 93-135 147-7 4-5 13l31 91q1 4 6 6t8 0z m240-526v0 0q-7-35-14-56-12-33-22-54-33-69-84-125t-118-93q-4-2-9-1t-7 5l-1 2-29 93q-1 4 1 7t5 6q18 11 31 23 17 14 30 27 36 36 62 80t37 93q3 8 11 8l97-1q4 0 7-4t3-7v-3z m-431-389v0 0q-28-3-60-3t-57 4q-76 9-144 40-71 31-127 83-4 3-4 7t4 9l80 58q4 2 9 1t7-3q20-16 33-24t32-18q93-47 197-41 9 0 12-8l28-90q2-4 0-8t-7-6q-1-1-3-1v0z" horiz-adv-x="1000" />

<glyph glyph-name="spin3" unicode="&#xe802;" d="M494 808q-129 0-240-63-108-61-173-167-68-108-73-235 0-8 3-13t6-6l4-1h82q19 0 19 18 5 97 57 178 50 80 132 126 85 48 183 48 78 0 148-31t121-85l-57-56q-9-9-8-18t13-12l243-50q10-3 21 2t15 15 0 27l-57 223q-2 8-11 13t-17 0l-64-59q-68 68-155 106-92 40-192 40z m403-500q-19 0-19-18-5-97-57-179-50-80-132-126-85-48-182-48-78 0-149 32-69 30-121 85l58 56q8 9 7 18t-12 12l-244 49q-10 3-20-2t-15-15-1-26l57-223q2-8 11-14t18 1l63 59q67-69 156-107 91-39 192-39 128 0 239 63 108 62 173 167 68 108 73 236 0 8-2 12t-7 6l-4 1h-82z" horiz-adv-x="1000" />

<glyph glyph-name="spin4" unicode="&#xe803;" d="M498 808q-85 0-166-30t-149-85v0q84 68 191 89 104 20 206-10 105-31 182-109 65-65 98-149 32-82 30-171t-40-168q-14-39 11-66 16-16 42-17t41 17q3 2 8 9t7 14q35 88 34 184t-37 185q-37 91-107 162-72 71-165 109-90 36-186 36z m-402-270q-24 0-39-16-4-4-8-10-6-8-7-14-35-89-34-185t37-183q37-92 108-162 89-89 210-125 117-34 237-10 122 24 218 104v0q-84-68-191-89-104-20-206 11-105 31-183 109-65 65-97 150-32 81-29 169t39 168q7 22 5 37t-17 30q-8 8-19 12t-24 4z" horiz-adv-x="1001" />

<glyph glyph-name="spin5" unicode="&#xe804;" d="M463 808q-4 0-7-3t-4-8v-180q0-4 4-8t7-3h69q5 0 8 3t3 8v180q0 5-3 8t-8 3h-69z m246-47q-6 1-10-5l-90-155q-3-4-2-9t6-7l59-33v-1q4-2 9-1t7 5l90 155q2 5 1 9t-5 7l-60 34q-1 1-5 1z m-422-2q-3 0-5-2l-61-34q-3-2-4-7t1-9l89-154q2-4 7-6t9 1l60 34q4 3 5 7t-1 9l-90 154v1q-3 6-10 6z m611-160q-4 0-6-1l-155-90q-4-2-5-7t0-8l35-60q3-4 8-5t8 1l154 89h1q4 2 5 7t-1 9l-34 60q-3 7-10 5z m-798-4q-7 0-10-6l-35-60q-2-4-1-9t5-6l156-89q4-3 9-2t6 6l35 59q2 4 1 8t-5 7l-156 90q-4 2-5 2z m701-231v0q-4 0-7-3t-4-8v-69q0-5 3-9t8-3h180q5 0 8 3t3 9v69q0 5-3 8t-8 3h-180z m-781-5v0q-5 0-8-4t-4-8v-69q0-5 4-8t8-3h179q5 0 8 3t3 8v69q0 5-3 8t-8 4h-179z m760-151q-7 0-10-6l-34-59h-1q-2-4-1-9t5-7l156-89q4-2 9-1t7 5l34 60q2 4 1 8t-5 7l-155 90q-2 1-6 1z m-558-5q-2 0-4-1l-155-89h-1q-4-2-5-7t1-9l35-60q2-4 7-5t8 1l155 89q4 2 6 6t-1 10l-35 60q-6 6-11 5z m461-119q-4 0-6-1l-60-34q-4-3-5-8t1-8l90-155v-1q2-4 7-5t9 1l60 35q4 2 5 7t-1 9l-90 154q-3 6-10 6z m-361-2q-7 0-10-6l-90-155q-2-5-1-10t5-6l60-35q4-2 9-1t6 5l91 156q2 5 1 9t-6 7l-59 34z m147-57q-5 0-8-3t-4-8v-180q0-5 4-8t8-3h68q5 0 8 3t3 8v180q0 5-3 8t-8 3h-68z" horiz-adv-x="1000" />

<glyph glyph-name="spin6" unicode="&#xe805;" d="M849-19q-68-68-161-102-89-33-186-30t-187 40q-92 38-159 105-92 92-128 216-35 121-9 243 26 126 109 224l4 4q19 23 31 30 26 17 59 13t56-26q21-23 26-53t-10-57q-7-13-16-22-68-73-93-167-25-93-4-182 23-92 89-158 73-73 175-92 97-18 195 15t163 110q52 60 80 134t27 154q-1 81-32 156-40 95-121 158-79 60-178 77-102 17-202-17v1q115 40 232 21 115-18 206-87 94-72 140-182 34-81 37-168 2-85-26-167t-82-150q-15-21-35-41z" horiz-adv-x="1000" />

<glyph glyph-name="firefox" unicode="&#xe806;" d="M504-161q-104 0-196 39-89 37-156 105t-107 157q-42 96-36 225 5 124 51 240 47 118 122 187l-6-153q4 4 21 6t34 0 22-7q15 30 52 55 34 24 79 38t85 15q-17-14-40-45-27-34-42-66-18-37-15-60 21-7 55-10 20-2 58-4l21-1q8-5 5-26t-17-41q-12-16-37-28-17-9-39-15l-19-5 7-105-75 38q-12-30 0-58 11-26 38-41t57-9q22 4 43 13 13 6 34 18t30 16q17 7 33 6 34-1 51-18 15-16 9-35-3-13-18-20-11-4-27-5h-13q-32-52-79-74t-116-17q50-41 113-49 55-7 113 12 52 18 95 52 41 33 60 70 23 45 22 106-1 54-20 104-19 48-44 69 48-21 73-42 30-25 45-64 8 93-32 187-40 96-115 157 145-42 225-151 82-113 84-286 1-87-35-174t-103-154q-68-71-155-110-93-42-195-42z" horiz-adv-x="1000" />

<glyph glyph-name="chrome" unicode="&#xe807;" d="M498 807q-110-1-209-48-102-48-172-135l152-233q19 54 59 94t93 59 110 14l408-21q-31 63-79 114-50 53-114 91-113 65-248 65z m-409-222q-81-121-81-270 0-121 55-227 54-103 149-172t212-87l126 248q-56-10-111 4t-98 51-67 89z m871-92l-278-15q37-44 52-99t5-111-44-102l-223-342q145-9 274 65 105 60 169 162 62 98 75 214t-30 228z m-460-11q-45 0-83-23t-60-61-23-83 23-83 60-61 83-22 83 22 61 61 22 83-22 83-61 61-83 23z" horiz-adv-x="1000" />

<glyph glyph-name="opera" unicode="&#xe808;" d="M425-176q-101 0-183 42-76 39-131 111-51 68-78 158-26 86-26 180t26 180q27 90 78 158 55 72 131 111 82 42 183 42t183-42q76-39 131-111 51-68 78-158 26-86 26-180t-26-180q-27-90-79-158-54-72-130-111-82-42-183-42z m0 91q66 0 112 83 41 75 56 199 14 119 0 237-15 124-56 199-46 83-112 83t-112-83q-41-75-56-199-15-119 0-237 15-124 56-199 45-83 112-83z" horiz-adv-x="844.7" />

<glyph glyph-name="ie" unicode="&#xe809;" d="M822 798q-104-1-271-102-118 17-228-21-113-40-183-127-76-94-81-225 31 48 87 106 62 63 128 110 75 55 140 75v-13q-52-26-122-96t-134-160q-68-96-107-186-44-100-44-175 1-85 59-129 30-23 84-22 45 1 102 19 49 16 92 39 41 22 54 37 45-8 86-8 95 0 181 37 83 36 143 100t85 145h-290q-10-41-40-65t-77-23q-68 0-97 43-24 34-24 102h541q14 96-23 186-35 85-107 148t-165 90q92 61 163 80 81 22 115-16 39-44 10-164h20q25 79 16 134t-53 71q-24 10-56 10h-4z m-340-293q58 0 91-33t33-91h-243q0 56 32 90t87 34z m-354-407q42-60 106-103t141-62q-36-27-91-45-52-16-99-18t-67 13q-33 27-29 86 4 54 39 129z" horiz-adv-x="944.3" />

<glyph glyph-name="phone" unicode="&#xe80a;" d="M777 92q0-14-5-38t-12-37q-11-28-67-59-51-27-101-27-14 0-29 2t-31 6-26 8-30 11-27 10q-53 20-95 46-70 43-145 117t-118 145q-26 42-45 95l-10 28q-8 23-11 30t-8 25-7 32-2 28q0 51 28 102 31 56 58 66 14 6 37 12t39 6q7 0 11-2 10-3 30-41 6-11 15-30t20-35 17-29q2-2 9-14t12-19 4-16q0-11-16-26t-34-31l-33-29q-15-13-16-25 0-4 3-12l4-11q1-3 8-14t7-10q41-75 95-129t128-95q1 0 10-6t13-7 11-5 13-2q10 0 24 15t30 34 30 34 27 16q7 0 15-4t20-12 13-10q14-8 30-16t35-20 29-17q38-18 41-28 2-4 2-12z" horiz-adv-x="785.2" />

<glyph glyph-name="down-dir" unicode="&#xe80b;" d="M557 434q0-13-9-23l-238-238q-11-11-24-11t-24 11l-238 238q-10 10-10 23t10 24 24 11h476q13 0 24-11t9-24z" horiz-adv-x="571.3" />

<glyph glyph-name="cart" unicode="&#xe80c;" d="M358 2q0-29-20-49t-49-22-49 22-21 49 21 48 49 21 49-21 20-48z m489 0q0-29-20-49t-49-22-49 22-22 49 22 48 49 21 49-21 20-48z m71 593v-280q0-12-10-22t-22-12l-570-66q7-34 7-39 0-8-13-35h502q15 0 25-10t10-25-10-24-25-11h-558q-14 0-25 11t-10 24q0 6 4 18t9 19 12 22 8 16l-96 449h-111q-15 0-25 10t-11 24 11 26 25 10h139q9 0 16-3t10-9 8-14 4-14 2-16 3-14h655q14 0 25-11t11-24z" horiz-adv-x="921.9" />

<glyph glyph-name="up-dir" unicode="&#xe80d;" d="M557 196q0-13-9-24t-24-9h-476q-14 0-24 9t-10 24 10 25l238 238q10 9 24 9t24-9l238-238q9-11 9-25z" horiz-adv-x="571.3" />

<glyph glyph-name="mode-grid" unicode="&#xe80e;" d="M8-177v246h246v-246h-246z m0 369v246h246v-246h-246z m0 369v247h246v-247h-246z m369-738v246h246v-246h-246z m0 369v246h246v-246h-246z m0 369v247h246v-247h-246z m369-738v246h246v-246h-246z m0 369v246h246v-246h-246z m0 369v247h246v-247h-246z" horiz-adv-x="1000" />

<glyph glyph-name="mode-list" unicode="&#xe80f;" d="M8-177v246h246v-246h-246z m0 369v246h246v-246h-246z m0 369v247h246v-247h-246z m385-738v246h599v-246h-599z m0 369v246h599v-246h-599z m0 369v247h599v-247h-599z" horiz-adv-x="1000" />

<glyph glyph-name="compare" unicode="&#xe810;" d="M226-176h-218v327h218v-327z m365 0h-220v656h220v-656z m145 0v983h218v-983h-218z" horiz-adv-x="960" />

<glyph glyph-name="wishlist" unicode="&#xe811;" d="M771 808q125 0 204-79t80-204v-59q0-281-524-643-522 361-522 643v59q0 125 79 204t203 79q80 0 132-30t108-97q57 66 110 97t130 30z" horiz-adv-x="1063.5" />

<glyph glyph-name="search" unicode="&#xe812;" d="M742 178l250-252-103-103-250 250q-104-71-229-71-166 0-284 118t-118 285 118 284 284 119 285-119 118-284q0-125-71-227z m-64 227q0 111-78 190t-190 79-190-79-78-190 78-189 190-79 190 79 78 189z" horiz-adv-x="1000" />

<glyph glyph-name="left-dir" unicode="&#xe813;" d="M353 587v-543q0-15-11-27t-28-12-27 12l-272 271q-11 12-11 27t11 28l272 271q12 12 27 12t28-12 11-27z" horiz-adv-x="357.4" />

<glyph glyph-name="right-dir" unicode="&#xe814;" d="M353 315q0-15-11-27l-271-271q-12-12-27-12t-28 12-12 27v543q0 16 12 27t28 12 27-12l271-272q11-10 11-27z" horiz-adv-x="357.4" />

<glyph glyph-name="down-open" unicode="&#xe815;" d="M976 462l-449-448q-11-12-27-12t-27 12l-449 448q-12 12-12 28t12 27l101 100q11 12 27 12t27-12l321-321 321 321q12 12 27 12t28-12l100-100q12-12 12-27t-12-28z" horiz-adv-x="1000" />

<glyph glyph-name="left-open" unicode="&#xe816;" d="M662 639l-325-324 325-324q11-11 11-28t-11-27l-102-102q-12-11-27-11t-28 11l-453 454q-12 11-12 27t12 28l453 453q11 12 28 12t27-12l102-102q11-11 11-28t-11-27z" horiz-adv-x="710" />

<glyph glyph-name="right-open" unicode="&#xe817;" d="M662 288l-453-454q-12-11-28-11t-27 11l-102 102q-12 12-12 27t12 28l324 324-324 324q-12 12-12 27t12 28l102 102q11 12 27 12t28-12l453-453q11-12 11-28t-11-27z" horiz-adv-x="710" />

<glyph glyph-name="up-open" unicode="&#xe818;" d="M976 113l-100-100q-12-10-28-10t-27 10l-321 322-321-322q-12-10-27-10t-27 10l-101 100q-12 12-12 28t12 27l449 449q12 11 27 11t27-11l449-449q12-11 12-27t-12-28z" horiz-adv-x="1000" />

<glyph glyph-name="angle-left" unicode="&#xe819;" d="M353 563q0-7-7-12l-234-236 234-235q7-6 7-14t-7-14l-30-30q-5-5-12-5t-14 5l-279 280q-6 5-6 13t6 14l279 278q5 7 14 7t12-7l30-30q7-5 7-14z" horiz-adv-x="357.4" />

<glyph glyph-name="angle-right" unicode="&#xe81a;" d="M353 315q0-8-5-13l-280-280q-6-5-13-5t-14 5l-30 30q-6 7-6 14t6 14l235 235-235 236q-6 5-6 12t6 14l30 30q5 7 14 7t13-7l280-278q5-6 5-14z" horiz-adv-x="357.4" />

<glyph glyph-name="angle-up" unicode="&#xe81b;" d="M627 187q0-8-6-13l-31-31q-6-7-13-7t-15 7l-242 241-242-241q-5-7-14-7t-13 7l-31 31q-7 5-7 13t7 14l287 287q5 6 13 6t14-6l287-287q6-5 6-14z" horiz-adv-x="635.7" />

<glyph glyph-name="angle-down" unicode="&#xe81c;" d="M627 443q0-8-6-14l-287-287q-5-6-14-6t-13 6l-287 287q-7 6-7 14t7 14l31 31q5 6 13 6t14-6l242-241 242 241q6 6 15 6t13-6l31-31q6-6 6-14z" horiz-adv-x="635.7" />

<glyph glyph-name="down" unicode="&#xe81d;" d="M422 77q4-10-3-18l-191-211q-6-5-13-5t-13 5l-194 211q-7 8-2 18t15 11h123v682q0 8 4 13t13 5h105q8 0 13-5t5-13v-682h122q11 0 16-11z" horiz-adv-x="421.9" />

<glyph glyph-name="left" unicode="&#xe81e;" d="M983 370v-108q0-7-5-12t-14-5h-696v-126q0-12-11-17t-19 3l-215 197q-5 5-5 12t5 14l215 197q9 8 20 3t10-16v-125h696q8 0 14-5t5-12z" horiz-adv-x="1000" />

<glyph glyph-name="right" unicode="&#xe81f;" d="M983 317q0-8-5-14l-216-197q-8-8-19-4t-11 17v125h-696q-8 0-13 5t-5 12v108q0 7 5 12t13 5h696v125q0 12 11 17t19-3l216-195q5-6 5-13z" horiz-adv-x="1000" />

<glyph glyph-name="up" unicode="&#xe820;" d="M422 554q-5-11-16-11h-122v-683q0-8-5-13t-13-5h-105q-8 0-13 5t-5 13v683h-122q-12 0-16 11t3 18l191 211q5 5 13 5t13-5l194-211q7-7 3-18z" horiz-adv-x="421.9" />

<glyph glyph-name="angle-double-left" unicode="&#xe821;" d="M343 75q0-7-6-13l-29-29q-5-5-13-5t-13 5l-268 269q-6 6-6 13t6 13l268 269q5 6 13 6t13-6l29-29q6-5 6-14t-6-12l-226-227 226-226q6-6 6-14z m221 0q0-7-5-13l-29-29q-6-5-14-5t-13 5l-268 269q-7 6-7 13t7 13l268 269q6 6 13 6t14-6l29-29q5-5 5-14t-5-12l-227-227 227-226q5-6 5-14z" horiz-adv-x="571.3" />

<glyph glyph-name="angle-double-right" unicode="&#xe822;" d="M343 315q0-7-5-13l-270-269q-5-5-12-5t-13 5l-29 29q-6 6-6 13t6 14l226 226-226 227q-6 5-6 12t6 14l29 29q5 6 13 6t12-6l270-269q5-5 5-13z m221 0q0-7-5-13l-269-269q-6-5-13-5t-13 5l-29 29q-6 6-6 13t6 14l226 226-226 227q-6 5-6 12t6 14l29 29q6 6 13 6t13-6l269-269q5-5 5-13z" horiz-adv-x="571.3" />

<glyph glyph-name="angle-double-up" unicode="&#xe823;" d="M633 65q0-8-7-15l-32-31q-5-6-13-6t-15 6l-246 245-246-245q-5-6-14-6t-14 6l-31 31q-7 7-7 15t7 14l291 292q6 5 14 5t14-5l292-292q7-6 7-14z m0 240q0-8-7-15l-32-31q-5-6-13-6t-15 6l-246 246-246-246q-5-6-14-6t-14 6l-31 31q-7 7-7 15t7 14l291 292q6 7 14 7t14-7l292-292q7-6 7-14z" horiz-adv-x="635.7" />

<glyph glyph-name="angle-double-down" unicode="&#xe824;" d="M633 325q0-7-7-14l-292-292q-5-6-14-6t-14 6l-291 292q-7 7-7 14t7 15l31 31q6 6 14 6t14-6l246-246 246 246q6 6 15 6t13-6l32-31q7-7 7-15z m0 240q0-7-7-14l-292-292q-5-5-14-5t-14 5l-291 292q-7 7-7 14t7 15l31 31q6 7 14 7t14-7l246-245 246 245q6 7 15 7t13-7l32-31q7-7 7-15z" horiz-adv-x="635.7" />

<glyph glyph-name="mail" unicode="&#xe825;" d="M921 18v420q-18-20-39-35-146-113-233-186-27-23-45-36t-47-27-56-13h-2q-25 0-56 13t-47 27-45 36q-86 73-233 186-21 15-38 35v-420q0-6 5-12t12-5h806q7 0 12 5t6 12z m0 575v13l-2 14-3 5q-3 5-5 4t-8 2h-806q-7 0-12-6t-5-12q0-92 81-156 105-82 219-172l19-17q16-14 25-20t24-17 28-16 23-4h2q11 0 24 4t27 16 25 17 24 20 20 17q113 90 219 172 30 24 55 64t26 72z m69 20v-595q0-36-25-61t-62-27h-806q-35 0-61 27t-26 61v595q0 37 26 62t61 26h806q36 0 62-26t25-62z" horiz-adv-x="1000" />

<glyph glyph-name="location" unicode="&#xe826;" d="M427 456q0 58-42 99t-99 41-99-41-41-99 41-99 99-42 99 42 42 99z m139 0q0-60-18-98l-199-425q-9-18-26-28t-37-11-37 11-26 28l-200 425q-18 38-18 98 0 116 83 198t198 83 199-83 81-198z" horiz-adv-x="571.3" />

<glyph glyph-name="skype" unicode="&#xe827;" d="M886 217q26-57 26-116 0-106-74-182t-176-75q-61 0-118 31-51-8-79-8-178 0-305 130t-127 314q0 44 10 89-35 59-35 132 0 106 72 180t177 75q73 0 134-39 31 8 74 8 179 0 305-130t126-315q0-45-10-94z m-200-118q29 45 29 98 0 44-16 79-15 30-49 52t-75 37q-66 19-94 25-14 2-34 7l-27 7q-23 8-33 14-16 7-26 21-10 10-10 26 0 23 28 41 26 20 75 20t72-18q26-22 38-49 15-26 25-36 16-11 38-11 25 0 45 19 17 18 17 44 0 19-13 51-16 23-42 47-27 21-72 37-47 14-101 14-70 0-125-22-55-19-85-59t-29-90 27-88q34-40 75-56 47-21 114-35 12-2 28-7t30-8 21-5q27-9 45-27 17-14 17-41 0-34-31-55-35-24-88-24-40 0-63 12-26 14-36 27-23 44-25 46-8 23-24 39-20 14-39 14-28 0-45-18t-18-41q0-38 27-81 26-39 71-65 63-33 155-33 77 0 136 23 59 28 87 69z" horiz-adv-x="918" />

<glyph glyph-name="right-open-big" unicode="&#xe828;" d="M17-48l351 362-351 365q-26 25 0 47 25 25 47 0l384-386q23-26 0-49l-384-386q-22-26-47 0-26 21 0 47z" horiz-adv-x="460" />

<glyph glyph-name="left-open-big" unicode="&#xe829;" d="M447-48q25-26 0-47-25-26-47 0l-384 386q-24 23 0 49l384 386q22 25 47 0 25-22 0-47l-351-365z" horiz-adv-x="460" />

<glyph glyph-name="down-open-big" unicode="&#xe82a;" d="M76 527l357-344 360 344q21 25 46 0 25-21 0-46l-383-379q-21-21-46 0l-383 379q-25 25 0 46 23 23 49 0z" horiz-adv-x="866.2" />

<glyph glyph-name="up-open-big" unicode="&#xe82b;" d="M792 102l-360 346-357-346q-26-22-49 0t0 48l383 377q25 25 46 0l383-377q23-25 0-48-25-22-46 0z" horiz-adv-x="864.3" />

<glyph glyph-name="cancel" unicode="&#xe82c;" d="M777 80q0-25-17-44l-88-88q-19-17-44-17t-44 17l-191 192-190-192q-19-17-44-17t-44 17l-89 88q-18 19-18 44t18 44l191 191-191 190q-18 19-18 44t18 44l89 89q18 18 44 18t44-18l190-191 191 191q18 18 44 18t44-18l88-89q17-17 17-44t-17-44l-190-190 190-191q17-17 17-44z" horiz-adv-x="785.2" />

<glyph glyph-name="user" unicode="&#xe82d;" d="M706 40q0-59-34-102t-82-43h-467q-48 0-82 43t-34 102q0 47 4 88t17 83 32 72 51 49 75 19q71-71 170-71t172 71q41 0 74-19t51-49 32-72 18-83 3-88z m-140 485q0-86-61-148t-149-62-148 62-61 148 61 149 148 62 149-62 61-149z" horiz-adv-x="710" />

<glyph glyph-name="mail-alt" unicode="&#xe82e;" d="M990 453v-435q0-36-25-61t-62-27h-806q-35 0-61 27t-26 61v435q25-27 55-48 198-135 272-189l50-36q18-13 52-26t60-13h2q27 0 60 13t52 26 50 36q93 67 272 189 32 21 55 48z m0 160q0-43-26-82t-67-68q-206-143-257-177l-22-17q-17-13-30-21t-28-18-32-15-27-4h-2q-12 0-26 4t-32 15l-29 18q-11 7-30 21t-22 17q-50 34-144 99t-112 78q-34 23-64 63t-30 76q0 42 23 70t64 29h806q35 0 62-26t25-62z" horiz-adv-x="1000" />

<glyph glyph-name="fax" unicode="&#xe82f;" d="M166 597q37 0 62-26t26-63v-597q0-37-26-62t-62-26h-70q-36 0-63 26t-25 62v597q0 37 25 63t63 26h70z m756-90q32-18 51-51t19-71v-421q0-58-41-100t-100-41h-474q-36 0-62 26t-26 62v843q0 23 15 38t38 16h369q22 0 48-11t42-27l84-84q15-14 25-41t12-48v-90z m-404-543v70q0 8-5 13t-13 5h-70q-8 0-13-5t-5-13v-70q0-8 5-13t13-5h70q8 0 13 5t5 13z m0 141v70q0 8-5 12t-13 5h-70q-8 0-13-5t-5-12v-70q0-8 5-13t13-5h70q8 0 13 5t5 13z m0 140v70q0 8-5 13t-13 5h-70q-8 0-13-5t-5-13v-70q0-7 5-12t13-5h70q8 0 13 5t5 12z m141-281v70q0 8-5 13t-13 5h-71q-7 0-12-5t-5-13v-70q0-8 5-13t12-5h71q8 0 13 5t5 13z m0 141v70q0 8-5 12t-13 5h-71q-7 0-12-5t-5-12v-70q0-8 5-13t12-5h71q8 0 13 5t5 13z m0 140v70q0 8-5 13t-13 5h-71q-7 0-12-5t-5-13v-70q0-7 5-12t12-5h71q8 0 13 5t5 12z m140-281v70q0 8-5 13t-12 5h-71q-7 0-12-5t-6-13v-70q0-8 6-13t12-5h71q7 0 12 5t5 13z m0 141v70q0 8-5 12t-12 5h-71q-7 0-12-5t-6-12v-70q0-8 6-13t12-5h71q7 0 12 5t5 13z m0 140v70q0 8-5 13t-12 5h-71q-7 0-12-5t-6-13v-70q0-7 6-12t12-5h71q7 0 12 5t5 12z m52 211v141h-87q-22 0-38 15t-15 37v89h-352v-282h492z" horiz-adv-x="1000" />

<glyph glyph-name="lock" unicode="&#xe830;" d="M181 350h279v105q0 58-42 99t-98 40-99-40-40-99v-105z m453-52v-315q0-21-15-36t-37-15h-523q-22 0-37 15t-16 36v315q0 21 16 37t37 15h17v105q0 100 72 172t172 72 173-72 71-172v-105h18q22 0 37-15t15-37z" horiz-adv-x="635.7" />

<glyph glyph-name="company" unicode="&#xe831;" d="M360 596h280v70h-280v-70z m631-351v-263q0-36-26-62t-61-25h-807q-36 0-62 25t-26 62v263h368v-87q0-15 11-25t25-11h174q15 0 25 11t11 25v87h368z m-421 0v-70h-140v70h140z m421 263v-210h-982v210q0 37 26 62t62 26h193v87q0 23 15 37t37 16h316q22 0 37-16t15-37v-87h194q36 0 61-26t26-62z" horiz-adv-x="1000" />

<glyph glyph-name="city" unicode="&#xe832;" d="M780 808q15 0 25-11t11-25v-913q0-15-11-25t-25-11h-703q-14 0-24 11t-11 25v913q0 15 11 25t24 11h703z m-457-159v-34q0-8 5-13t13-5h35q7 0 12 5t5 13v34q0 8-5 13t-12 5h-35q-8 0-13-5t-5-13z m0-141v-34q0-8 5-13t13-5h35q7 0 12 5t5 13v34q0 8-5 13t-12 5h-35q-8 0-13-5t-5-13z m0-139v-36q0-8 5-13t13-5h35q7 0 12 5t5 13v36q0 6-5 11t-12 5h-35q-8 0-13-5t-5-11z m0-141v-36q0-8 5-12t13-5h35q7 0 12 5t5 12v36q0 8-5 13t-12 4h-35q-8 0-13-4t-5-13z m-70-176v35q0 8-5 13t-13 5h-35q-7 0-12-5t-5-13v-35q0-8 5-13t12-5h35q8 0 13 5t5 13z m0 140v36q0 8-5 13t-13 4h-35q-7 0-12-4t-5-13v-36q0-8 5-12t12-5h35q8 0 13 5t5 12z m0 141v36q0 6-5 11t-13 5h-35q-7 0-12-5t-5-11v-36q0-8 5-13t12-5h35q8 0 13 5t5 13z m0 141v34q0 8-5 13t-13 5h-35q-7 0-12-5t-5-13v-34q0-8 5-13t12-5h35q8 0 13 5t5 13z m0 141v34q0 8-5 13t-13 5h-35q-7 0-12-5t-5-13v-34q0-8 5-13t12-5h35q8 0 13 5t5 13z m281-704v105q0 8-5 13t-13 5h-175q-8 0-13-5t-5-13v-105q0-8 5-13t13-5h175q8 0 13 5t5 13z m0 281v36q0 8-5 13t-13 4h-35q-7 0-12-4t-5-13v-36q0-8 5-12t12-5h35q8 0 13 5t5 12z m0 141v36q0 6-5 11t-13 5h-35q-7 0-12-5t-5-11v-36q0-8 5-13t12-5h35q8 0 13 5t5 13z m0 141v34q0 8-5 13t-13 5h-35q-7 0-12-5t-5-13v-34q0-8 5-13t12-5h35q8 0 13 5t5 13z m0 141v34q0 8-5 13t-13 5h-35q-7 0-12-5t-5-13v-34q0-8 5-13t12-5h35q8 0 13 5t5 13z m141-563v35q0 8-5 13t-13 5h-35q-7 0-12-5t-6-13v-35q0-8 6-13t12-5h35q8 0 13 5t5 13z m0 140v36q0 8-5 13t-13 4h-35q-7 0-12-4t-6-13v-36q0-8 6-12t12-5h35q8 0 13 5t5 12z m0 141v36q0 6-5 11t-13 5h-35q-7 0-12-5t-6-11v-36q0-8 6-13t12-5h35q8 0 13 5t5 13z m0 141v34q0 8-5 13t-13 5h-35q-7 0-12-5t-6-13v-34q0-8 6-13t12-5h35q8 0 13 5t5 13z m0 141v34q0 8-5 13t-13 5h-35q-7 0-12-5t-6-13v-34q0-8 6-13t12-5h35q8 0 13 5t5 13z" horiz-adv-x="857.4" />

<glyph glyph-name="post" unicode="&#xe833;" d="M788 260v-269q0-16-11-26t-25-11h-216v216h-145v-216h-215q-16 0-26 11t-11 26v273l324 266 324-266q1-1 1-4z m125 39l-34-41q-5-5-12-6h-2q-8 0-13 3l-389 325-389-325q-7-4-14-3t-12 6l-35 41q-4 6-3 13t6 12l405 337q18 16 42 16t43-16l138-114v109q0 8 5 13t13 6h108q8 0 13-6t5-13v-229l123-103q6-4 6-12t-4-13z" horiz-adv-x="921.9" />

<glyph glyph-name="country" unicode="&#xe834;" d="M155 679q0-41-37-62v-721q0-7-5-12t-13-6h-37q-7 0-12 6t-7 12v721q-35 21-35 62 0 31 21 52t51 22 52-22 22-52z m836-36v-434q0-14-7-22t-22-15q-123-67-210-67-35 0-71 13t-61 27-66 28-80 12q-109 0-264-83-11-5-20-5-14 0-25 10t-10 26v423q0 17 17 30 12 9 45 25 134 68 239 68 61 0 114-16t125-50q21-11 51-11t65 12 63 26 50 27 31 12q15 0 25-10t11-26z" horiz-adv-x="1000" />

<glyph glyph-name="calendar" unicode="&#xe835;" d="M77-106h158v158h-158v-158z m193 0h175v158h-175v-158z m-193 194h158v174h-158v-174z m193 0h175v174h-175v-174z m-193 210h158v158h-158v-158z m404-404h175v158h-175v-158z m-211 404h175v158h-175v-158z m421-404h158v158h-158v-158z m-210 194h175v174h-175v-174z m-193 473v158q0 7-6 12t-12 6h-35q-7 0-12-6t-6-12v-158q0-7 6-13t12-5h35q7 0 12 5t6 13z m403-473h158v174h-158v-174z m-210 210h175v158h-175v-158z m210 0h158v158h-158v-158z m17 263v158q0 7-4 12t-13 6h-35q-6 0-12-6t-5-12v-158q0-7 5-13t12-5h35q8 0 13 5t4 13z m212 35v-702q0-28-22-49t-49-21h-772q-28 0-49 21t-21 49v702q0 29 21 49t49 21h71v53q0 36 25 62t62 25h35q37 0 62-25t26-62v-53h210v53q0 36 27 62t61 25h35q36 0 63-25t25-62v-53h70q28 0 49-21t22-49z" horiz-adv-x="921.9" />

<glyph glyph-name="doc" unicode="&#xe836;" d="M813 599q16-16 27-41t11-50v-632q0-22-15-37t-38-16h-738q-23 0-37 16t-16 37v878q0 23 16 38t37 16h492q22 0 49-11t41-27z m-244 134v-207h207q-5 17-12 23l-172 172q-6 7-23 12z m212-840v563h-229q-22 0-37 16t-16 36v230h-422v-845h704z" horiz-adv-x="857.4" />

<glyph glyph-name="mobile" unicode="&#xe837;" d="M477 798q41 0 70-29t29-70v-768q0-39-29-68t-70-30h-374q-39 0-69 30t-29 68v768q0 42 29 70t69 29h374z m-187-926q30 0 49 15t20 35-20 35-48 14-49-15-21-34 21-35 48-15z m207 148v650h-414v-650h414z" horiz-adv-x="580.1" />

<glyph glyph-name="clock" unicode="&#xe838;" d="M499 508v-246q0-6-5-11t-13-5h-175q-7 0-12 5t-5 11v36q0 8 5 12t12 5h123v193q0 8 5 13t12 4h35q8 0 13-4t5-13z m227-193q0 82-40 150t-108 109-149 40-150-40-108-109-40-150 40-149 108-109 150-40 149 40 108 109 40 149z m123 0q0-114-56-211t-153-153-211-57-212 57-152 153-57 211 57 211 152 154 212 56 211-56 153-154 56-211z" horiz-adv-x="857.4" />

<glyph glyph-name="chat" unicode="&#xe839;" d="M780 420q0-75-52-140t-140-102-193-37q-47 0-96 9-68-48-152-71-20-5-47-9h-2q-6 0-12 5t-5 12q-1 1-1 3t1 4 1 3l2 6q1 3 2 3t3 3 2 2l13 13q10 10 15 16t12 17l13 20q6 9 11 25-68 39-106 96t-39 122q0 77 52 141t140 102 193 38 193-38 140-102 52-141z m210-139q0-66-39-123t-106-96q5-14 11-25t14-20 12-16 14-17 13-14l7-7 2-3 3-10q0-1-1-3-2-8-7-13t-12-4q-28 4-47 9-84 23-153 71-49-9-96-9-148 0-258 72 32-3 48-3 88 0 169 25t145 71q67 50 105 116t36 138q0 42-13 84 71-39 112-97t41-126z" horiz-adv-x="1000" />

<glyph glyph-name="tag" unicode="&#xe83a;" d="M257 558q0 30-21 51t-50 20-51-20-21-51 21-49 51-21 50 21 21 49z m593-319q0-30-20-51l-273-273q-22-21-51-21t-50 21l-397 397q-21 21-36 57t-15 65v231q0 29 21 50t50 22h232q29 0 64-15t57-36l398-398q20-20 20-49z" horiz-adv-x="857.4" />

<glyph glyph-name="folder" unicode="&#xe83b;" d="M918 438v-385q0-50-37-86t-86-36h-664q-49 0-86 36t-36 86v524q0 50 36 86t86 37h176q49 0 86-37t36-86v-17h366q50 0 86-36t37-86z" horiz-adv-x="921.9" />

<glyph glyph-name="folder-open" unicode="&#xe83c;" d="M1061 248q0-17-18-37l-187-221q-24-28-67-48t-81-20h-608q-19 0-33 7t-14 24 16 37l188 221q24 28 67 48t80 20h608q19 0 34-7t15-24z m-192 192v-90h-465q-53 0-110-26t-92-67l-188-221-2-3-1 7q-1 5 0 7v537q0 51 37 88t88 37h179q51 0 88-37t37-88v-18h304q52 0 88-37t37-89z" horiz-adv-x="1071.3" />

<glyph glyph-name="forward" unicode="&#xe83d;" d="M991 439q0-15-11-25l-280-281q-10-11-24-11t-25 11-10 25v140h-123q-54 0-97-3t-84-12-73-23-58-38-44-56-26-75-10-99q0-31 3-68 0-4 2-13t1-15q0-8-5-14t-13-6-15 10q-4 5-8 12t-7 17-5 13q-70 156-70 247 0 109 29 183 89 221 480 221h123v141q0 13 10 24t25 10 24-10l280-281q11-11 11-24z" horiz-adv-x="1000" />

<glyph glyph-name="reply" unicode="&#xe83e;" d="M991 175q0-91-69-247-1-4-6-13t-7-17-7-12q-7-9-15-9t-14 5-5 14q0 5 1 15t2 13q3 37 3 68 0 55-9 99t-27 76-44 55-58 38-73 23-84 12-97 3h-122v-140q0-14-10-25t-26-11-24 11l-280 281q-11 10-11 25t11 24l280 281q10 10 24 10t26-10 10-24v-141h122q391 0 480-221 29-74 29-183z" horiz-adv-x="1000" />

<glyph glyph-name="cog" unicode="&#xe83f;" d="M569 315q0 58-41 100t-99 41-99-41-41-100 41-99 99-41 99 41 41 99z m281 60v-121q0-7-4-13t-11-7l-102-16q-10-29-21-50 19-26 58-76 6-5 6-12t-5-13q-15-21-54-60t-52-38q-7 0-14 5l-75 59q-25-13-51-21-8-75-15-102-4-16-20-16h-122q-8 0-13 5t-6 12l-16 101q-27 9-49 21l-78-59q-6-5-14-5t-13 5q-69 63-91 93-4 5-4 12t5 12q8 12 28 37t29 39q-14 28-22 54l-100 15q-7 1-11 7t-5 12v122q0 7 5 13t10 7l102 16q8 24 21 50-22 31-59 75-5 7-5 13t4 13q15 19 54 59t52 39q7 0 15-5l76-59q23 13 49 21 9 74 17 102 3 16 19 16h122q7 0 13-5t7-12l14-101q28-9 51-20l77 58q5 5 13 5t14-5q70-66 90-93 4-5 4-12t-4-13l-29-36q-20-25-29-39 15-28 23-53l100-16q7-1 12-7t4-13z" horiz-adv-x="857.4" />

<glyph glyph-name="cog-alt" unicode="&#xe840;" d="M501 316q0 58-42 99t-99 42-99-42-42-99 42-100 99-41 99 41 42 100z m422-282q0 29-22 51t-49 20-49-20-21-51q0-28 21-49t49-21 50 21 21 49z m0 563q0 29-22 50t-49 20-49-20-21-50q0-29 21-50t49-20 50 20 21 50z m-212-231v-101q0-6-4-11t-7-6l-86-14q-6-19-18-41 19-27 49-63 4-6 4-12t-4-10q-11-17-45-49t-41-33-13 4l-63 50q-21-11-42-17-6-59-13-86-4-13-17-13h-102q-6 0-11 4t-5 10l-13 84q-18 6-41 18l-65-50q-4-4-10-4t-13 4q-78 74-78 89 0 5 3 10 5 8 23 29t26 34q-13 23-20 45l-84 13q-5 1-9 5t-3 11v102q0 5 3 10t9 6l85 14q7 18 18 41-19 27-49 63-4 6-4 12t4 11q11 15 45 48t43 32q6 0 12-4l63-49q19 10 42 18 6 59 13 85 3 12 16 12h102q6 0 11-4t6-9l13-84q18-6 41-17l64 48q5 4 12 4t11-4q79-73 79-88 0-4-4-10-6-9-23-30t-25-33q13-27 19-45l84-12q6-2 8-6t4-11z m352-293v-77q0-9-82-17-6-15-16-28 28-62 28-76 0-2-2-4-67-40-68-40-5 0-26 27l-28 36q-11-1-17-1t-17 1q-6-10-28-36t-25-27q-1 0-68 40-3 2-3 4 0 14 29 76-10 13-17 28-81 8-81 17v77q0 9 81 17 7 16 17 29-29 62-29 76 0 2 3 4l19 11q17 10 33 18t16 9q4 0 25-25t28-38l17 1 17-1q27 40 50 62l4 1q2 0 68-38 2-2 2-4 0-14-28-76 9-13 16-29 82-8 82-17z m0 563v-77q0-9-82-18-6-14-16-28 28-62 28-76 0-2-2-4-67-38-68-38-5 0-26 25t-28 38q-11-1-17-1t-17 1q-6-12-28-38t-25-25q-1 0-68 38-3 2-3 4 0 14 29 76-10 14-17 28-81 9-81 18v77q0 9 81 17 7 15 17 28-29 62-29 76 0 2 3 4l19 11q17 10 33 18t16 9q4 0 25-25t28-37l17 1 17-1q27 39 50 61l4 1q2 0 68-38 2-2 2-4 0-14-28-76 9-13 16-28 82-8 82-17z" horiz-adv-x="1071.3" />

<glyph glyph-name="wrench" unicode="&#xe841;" d="M209 25q0 14-10 25t-25 10-25-10-11-25 11-24 25-11 25 11 10 24z m358 233l-379-379q-21-20-50-20t-51 20l-58 61q-21 20-21 49t21 51l378 378q22-54 63-96t97-64z m352 242q0-22-13-59-27-74-91-121t-144-46q-103 0-176 73t-72 176 72 175 176 73q32 0 67-9t60-26q9-6 9-15t-9-16l-162-94v-124l107-60q2 2 44 27t74 45 40 20 13-5 5-14z" horiz-adv-x="921.9" />

<glyph glyph-name="quote-left" unicode="&#xe842;" d="M916-24h-339v340q0 141 100 239t239 100v-113q-94 0-160-67t-66-159h226v-340z m-566 0h-340v340q0 141 100 239t240 100v-113q-94 0-160-67t-66-159h226v-340z" horiz-adv-x="921.9" />

<glyph glyph-name="quote-right" unicode="&#xe843;" d="M10 655h340v-339q0-142-99-242t-241-98v113q94 0 161 66t66 161h-227v339z m567 0h339v-339q0-142-99-242t-240-98v113q93 0 160 66t66 161h-226v339z" horiz-adv-x="921.9" />

<glyph glyph-name="gift" unicode="&#xe844;" d="M516 46v392h-175v-392q0-14 10-21t25-7h105q16 0 26 7t9 21z m-249 461h106l-68 89q-15 16-37 16t-39-14-14-38 14-37 38-16z m376 53q0 22-15 38t-37 14q-24 0-38-16l-68-89h106q21 0 37 16t15 37z m206-140v-175q0-7-5-12t-13-5h-52v-228q0-22-16-36t-37-16h-595q-21 0-37 16t-15 36v228h-52q-8 0-13 5t-5 12v175q0 8 5 13t13 5h240q-50 0-87 35t-36 87 36 87 87 36q58 0 92-42l70-90 70 90q33 42 92 42 51 0 86-36t36-87-36-87-86-35h240q8 0 13-5t5-13z" horiz-adv-x="857.4" />

<glyph glyph-name="dollar" unicode="&#xe845;" d="M542 157q0-85-55-145t-142-76v-95q0-8-5-13t-13-5h-73q-7 0-13 5t-5 13v95q-37 5-70 18t-56 25-41 25-25 21-10 10q-9 12-1 22l57 75q3 5 12 6t14-5l1-1q62-54 133-69 20-4 41-4 44 0 78 24t34 67q0 16-9 29t-17 23-33 21-36 18-45 17q-20 9-33 14t-34 15-34 17-31 19-29 24-25 26-19 32-11 36-5 44q0 75 54 132t140 74v99q0 7 5 13t13 4h73q8 0 13-4t5-13v-97q32-3 61-13t47-18 36-20 20-17 9-7q9-10 3-21l-45-80q-4-9-12-10t-15 5l-8 7q-6 5-21 14t-33 18-41 14-46 6q-52 0-86-23t-32-61q0-14 4-27t16-23 22-17 31-18 33-15 38-15q30-10 45-16t42-20 41-24 34-27 29-35 18-42 7-51z" horiz-adv-x="571.3" />

<glyph glyph-name="euro" unicode="&#xe846;" d="M546 53l19-89q2-6-1-12t-10-8h-3q-2-1-6-2t-9-3-12-3-14-3-15-2-19-3-21-2-21 0q-130 0-226 72t-132 195h-52q-7 0-13 5t-5 12v63q0 7 5 12t13 6h36q-1 30 0 57h-36q-8 0-13 5t-5 13v64q0 7 5 12t13 5h54q37 116 134 187t222 71q57 0 107-13 6-2 11-9t2-13l-24-88q-2-7-8-11t-13-1l-2 1q-3 0-7 1l-21 4q-12 2-15 2l-32 2q-70 0-125-35t-83-98h259q9 0 14-7t3-14l-12-63q-3-15-18-15h-271q-1-20 0-57h255q8 0 13-7t4-15l-14-63q-1-5-6-9t-11-4h-214q27-65 83-104t126-37q10 0 20 1l35 4q7 1 13 3l10 3 7 1 3 2q7 2 14-2t9-11z" horiz-adv-x="571.3" />

<glyph glyph-name="pound" unicode="&#xe847;" d="M566 148v-202q0-8-5-13t-13-4h-525q-7 0-12 4t-5 13v82q0 8 5 13t12 5h54v210h-53q-7 0-12 5t-5 13v72q0 8 5 13t12 5h53v122q0 94 67 155t173 61q102 0 184-69 5-5 6-12t-4-11l-56-70q-5-6-12-7t-14 4q-2 3-14 11t-38 17-50 10q-48 0-76-26t-29-67v-118h168q8 0 12-5t5-13v-72q0-7-5-13t-12-5h-168v-207h228v99q0 7 5 12t12 5h89q8 0 13-5t5-12z" horiz-adv-x="571.3" />

<glyph glyph-name="rupee" unicode="&#xe848;" d="M496 513v-56q0-7-5-12t-13-5h-91q-12-79-70-129t-151-59q91-97 251-293 8-9 3-19t-17-10h-107q-9 0-14 7-167 200-272 312-5 5-5 12v69q0 8 5 13t13 5h61q72 0 116 23t56 69h-233q-8 0-13 5t-5 12v56q0 8 5 13t13 5h225q-30 62-146 62h-79q-7 0-13 5t-5 12v73q0 8 5 13t13 4h454q8 0 13-4t5-13v-56q0-8-5-13t-13-5h-127q26-33 35-78h93q8 0 13-5t5-13z" horiz-adv-x="501" />

<glyph glyph-name="yen" unicode="&#xe849;" d="M336-70h-94q-8 0-13 5t-5 12v181h-157q-7 0-13 5t-5 13v56q0 8 5 12t13 5h157v47h-157q-7 0-13 5t-5 12v57q0 8 5 13t13 5h116l-175 316q-4 9 1 18t14 9h106q11 0 16-10l118-233q11-21 31-68 5 13 17 37t15 34l104 229q4 11 16 11h104q10 0 15-9t1-18l-172-316h118q7 0 13-5t5-13v-57q0-7-5-12t-13-5h-159v-47h159q7 0 13-5t5-12v-56q0-8-5-13t-13-5h-159v-181q0-6-5-12t-12-5z" horiz-adv-x="573.2" />

<glyph glyph-name="rouble" unicode="&#xe84a;" d="M577 461q0 55-36 88t-94 35h-174v-245h174q59 0 94 33t36 89z m129 0q0-105-69-172t-178-67h-186v-64h276q7 0 12-5t5-13v-69q0-8-5-13t-12-5h-276v-105q0-8-5-12t-12-5h-91q-8 0-13 5t-5 12v105h-122q-8 0-13 5t-5 13v69q0 8 5 13t13 5h122v64h-122q-8 0-13 5t-5 13v81q0 7 5 12t13 6h122v343q0 8 5 13t13 5h294q109 0 178-67t69-172z" horiz-adv-x="710" />

<glyph glyph-name="try" unicode="&#xe84b;" d="M634 315q0-104-51-192t-140-140-192-51h-87q-8 0-13 4t-5 13v333l-117-36q-2-1-5-1-6 0-11 4-7 5-7 14v70q0 12 13 17l127 39v49l-117-35q-2-1-5-1-6 0-11 3-7 6-7 15v69q0 13 13 18l127 38v137q0 7 5 12t13 5h87q7 0 12-5t5-12v-99l204 62q9 3 16-2t7-14v-70q0-12-13-17l-214-66v-50l204 63q9 3 16-3t7-14v-70q0-12-13-16l-214-67v-265q103 8 173 83t71 178q0 8 5 13t13 5h87q8 0 12-5t5-13z" horiz-adv-x="635.7" />

<glyph glyph-name="won" unicode="&#xe84c;" d="M291 116l44 164h-87l41-164q1-1 1-2v-2q0 1 1 2t0 2z m64 234l19 70h-160l17-70h124z m105 0h75l-18 70h-39z m245-234l43 164h-89l45-164v-2q0-2 1-2v4z m61 234l18 70h-162l18-70h126z m224-17v-35q0-8-5-13t-13-5h-116l-89-337q-4-13-17-13h-87q-14 0-18 13l-90 337h-115l-91-337q-4-13-17-13h-87q-6 0-11 4t-5 9l-88 337h-113q-8 0-13 5t-5 13v35q0 7 5 12t13 5h96l-19 70h-77q-8 0-13 5t-5 13v34q0 8 5 13t13 5h59l-49 188q-3 9 3 16t14 7h76q13 0 16-14l49-197h197l53 197q4 14 17 14h68q14 0 18-14l53-197h200l51 197q3 14 17 14h75q9 0 15-7t2-16l-50-188h60q8 0 13-5t5-13v-34q0-8-5-13t-13-5h-79l-19-70h98q8 0 13-5t5-12z" horiz-adv-x="1000" />

<glyph glyph-name="bitcoin" unicode="&#xe84d;" d="M653 502q11-107-76-151 68-16 103-60t26-124q-5-42-19-74t-38-51-56-34-71-20-85-10v-148h-90v146q-47 0-71 1v-147h-90v148q-10 0-31 1t-32 0h-117l19 107h64q28 0 34 29v404q-8 38-53 38h-64v96l124-1q37 0 56 1v148h90v-145q47 2 71 2v143h90v-148q46-4 82-13t65-26 49-45 20-67z m-125-318q0 21-8 37t-22 27-34 18-37 11-44 5-40 2-37 0-29-2v-197h50q12 0 31 1l34 2q15 1 34 5t32 9l27 11q14 6 23 18t15 23 5 30z m-41 277q0 20-7 35t-18 24-28 16-32 10-36 5-33 1-33 0-23-1v-179h48q9 0 29 1t32 3 30 7 28 10 22 16 16 23 5 29z" horiz-adv-x="710" />

<glyph glyph-name="ok" unicode="&#xe84e;" d="M990 544q0-25-18-43l-544-544q-18-17-43-17t-43 17l-315 315q-17 18-17 43t17 43l86 86q18 18 43 18t43-18l186-187 415 416q18 18 43 18t43-18l86-86q18-17 18-43z" horiz-adv-x="1000" />

<glyph glyph-name="chevron-left" unicode="&#xe84f;" d="M5 315l383 384q18 18 42 18t42-18 18-43-17-42l-298-299 298-299q17-17 17-42t-17-43-42-17-43 18z" horiz-adv-x="495.1" />

<glyph glyph-name="chevron-right" unicode="&#xe850;" d="M5-25q0 24 17 42l300 298-300 299q-17 17-17 43t17 42 44 18 42-18l382-384-382-383q-19-18-42-18t-44 18q-17 17-17 43z" horiz-adv-x="495.1" />

<glyph glyph-name="export" unicode="&#xe851;" d="M8-177v985h486v-162h-325v-661h662v181l161 171v-514h-984z m228 273q0 85 12 156t28 122 46 91 56 67 66 44 69 27 71 14l66 6q24 2 62 0v185l280-281-280-281v202q-107 0-157-3t-119-20-100-54-60-105-40-170z" horiz-adv-x="1000" />

<glyph glyph-name="star" unicode="&#xe852;" d="M919 413q0-11-15-26l-198-193 47-274v-11q0-11-6-19t-17-9q-9 0-21 7l-246 129-245-129q-12-7-23-7t-16 9-6 19q0 4 1 11l47 274-199 193q-14 15-14 26 0 21 31 26l274 39 123 249q11 23 27 23t27-23l123-249 274-39q32-5 32-26z" horiz-adv-x="921.9" />

<glyph glyph-name="star-empty" unicode="&#xe853;" d="M631 218l166 163-230 33-104 209-103-209-231-33 167-163-40-230 207 109 207-109z m288 195q0-11-15-26l-198-193 47-274v-11q0-28-23-28-9 0-21 7l-246 129-245-129q-12-7-23-7t-16 9-6 19q0 4 1 11l47 274-199 193q-14 15-14 26 0 21 31 26l274 39 123 249q11 23 27 23t27-23l123-249 274-39q32-5 32-26z" horiz-adv-x="921.9" />

<glyph glyph-name="plus-squared" unicode="&#xe854;" d="M709 280v71q0 13-10 24t-24 10h-176v176q0 15-11 25t-24 10h-70q-15 0-25-10t-10-25v-176h-175q-15 0-25-10t-11-24v-71q0-14 11-25t25-9h175v-176q0-14 10-25t25-11h70q14 0 24 11t11 25v176h176q14 0 24 9t10 25z m141 299v-527q0-65-46-111t-112-47h-526q-66 0-112 47t-46 111v527q0 64 46 111t112 47h526q65 0 112-47t46-111z" horiz-adv-x="857.4" />

<glyph glyph-name="minus-squared" unicode="&#xe855;" d="M709 280v71q0 13-10 24t-24 10h-491q-15 0-25-10t-11-24v-71q0-14 11-25t25-9h491q14 0 24 9t10 25z m141 299v-527q0-65-46-111t-112-47h-526q-66 0-112 47t-46 111v527q0 64 46 111t112 47h526q65 0 112-47t46-111z" horiz-adv-x="857.4" />

<glyph glyph-name="plus-squared-alt" unicode="&#xe856;" d="M637 333v-35q0-8-5-13t-12-5h-192v-192q0-8-5-12t-13-5h-35q-8 0-13 5t-5 12v192h-192q-7 0-12 5t-5 13v35q0 7 5 12t12 5h192v193q0 7 5 12t13 5h35q8 0 13-5t5-12v-193h192q8 0 12-5t5-12z m70-245v455q0 36-26 61t-61 26h-455q-36 0-61-26t-27-61v-455q0-36 27-61t61-27h455q36 0 61 27t26 61z m70 455v-455q0-65-46-111t-111-46h-455q-65 0-111 46t-46 111v455q0 64 46 110t111 47h455q64 0 111-47t46-110z" horiz-adv-x="785.2" />

<glyph glyph-name="minus-squared-alt" unicode="&#xe857;" d="M637 333v-35q0-8-5-13t-12-5h-455q-7 0-12 5t-5 13v35q0 7 5 12t12 5h455q8 0 12-5t5-12z m70-245v455q0 36-26 61t-61 26h-455q-36 0-61-26t-27-61v-455q0-36 27-61t61-27h455q36 0 61 27t26 61z m70 455v-455q0-65-46-111t-111-46h-455q-65 0-111 46t-46 111v455q0 64 46 110t111 47h455q64 0 111-47t46-110z" horiz-adv-x="785.2" />

<glyph glyph-name="truck" unicode="&#xe858;" d="M337 61q0 30-22 52t-50 21-51-21-23-52 23-51 51-21 50 21 22 51z m-218 291h218v145h-90q-7 0-12-5l-111-111q-5-5-5-12v-17z m726-291q0 30-21 52t-51 21-51-21-22-52 22-51 51-21 51 21 21 51z m145 617v-580q0-8-2-15t-8-11l-9-6q-3-2-13-4t-13-1-15 0-12 0q0-60-42-103t-103-42-103 42-43 103h-217q0-60-43-103t-102-42-103 42-43 103h-64q-4 0-12 1t-13 4l-10 6q-5 3-8 11t-2 15q0 15 10 25t26 11v223q0 5 2 19l3 22q1 8 8 17l13 17 112 112q11 11 29 18t33 8h91v108q0 16 11 27t25 10h581q15 0 25-10t11-27z" horiz-adv-x="1000" />

<glyph glyph-name="lifebuoy" unicode="&#xe859;" d="M500 807q100 0 191-39t157-104 105-158 39-191-39-191-105-157-157-104-191-40-191 40-157 104-105 157-39 191 39 191 105 158 157 104 191 39z m0-69q-104 0-198-51l107-106q45 16 91 16t92-16l107 106q-95 51-199 51z m-372-620l106 106q-15 45-15 91t15 92l-106 107q-50-94-50-199t50-197z m372-225q104 0 199 50l-107 107q-46-16-92-16t-91 16l-107-107q94-50 198-50z m0 212q88 0 150 62t61 148-61 150-150 61-149-61-62-150 62-148 149-62z m266 119l106-106q50 93 50 197t-50 199l-106-107q16-45 16-92t-16-91z" horiz-adv-x="1000" />

<glyph glyph-name="pencil" unicode="&#xe85a;" d="M210-34l50 51-131 130-50-51v-60h71v-70h60z m290 516q0 12-12 12-5 0-9-4l-302-301q-4-4-4-10 0-12 13-12 5 0 9 4l302 301q3 4 3 10z m-30 106l231-231-462-463h-231v232z m380-53q0-29-20-50l-93-93-231 232 93 92q20 21 49 21t51-21l131-131q20-22 20-50z" horiz-adv-x="857.4" />

<glyph glyph-name="users" unicode="&#xe85b;" d="M334 315q-88-3-145-70h-74q-44 0-76 22t-30 65q0 194 67 194 4 0 25-11t53-23 65-12q38 0 74 13-3-21-3-37 0-77 44-141z m589-350q0-65-40-104t-107-38h-480q-67 0-106 38t-41 104q0 29 2 57t8 60 14 60 24 53 34 45 47 29 61 11q6 0 24-12t40-25 58-27 75-12 74 12 59 27 40 25l24 12q34 0 61-11t46-29 35-45 23-53 15-60 8-60 2-57z m-563 702q0-58-41-100t-100-41-99 41-42 100 42 99 99 42 100-42 41-99z m387-211q0-87-62-149t-149-62-149 62-62 149 62 149 149 62 149-62 62-149z m316-124q0-42-31-65t-75-22h-74q-56 67-145 70 44 64 44 141 0 16-3 37 37-13 73-13 33 0 66 12t53 23 24 11q68 0 68-194z m-70 335q0-58-41-100t-100-41-99 41-42 100 42 99 99 42 100-42 41-99z" horiz-adv-x="1071.3" />

<glyph glyph-name="video" unicode="&#xe85c;" d="M220-36v71q0 13-10 24t-25 10h-71q-13 0-24-10t-11-24v-71q0-14 11-25t24-11h71q14 0 25 11t10 25z m0 210v71q0 14-10 25t-25 10h-71q-13 0-24-10t-11-25v-71q0-14 11-24t24-10h71q14 0 25 10t10 24z m0 212v70q0 14-10 24t-25 11h-71q-13 0-24-11t-11-24v-70q0-15 11-25t24-11h71q14 0 25 11t10 25z m562-422v281q0 14-11 25t-24 10h-422q-14 0-25-10t-10-25v-281q0-14 10-25t25-11h422q14 0 24 11t11 25z m-562 632v70q0 15-10 26t-25 9h-71q-13 0-24-9t-11-26v-70q0-14 11-24t24-11h71q14 0 25 11t10 24z m773-632v71q0 13-11 24t-25 10h-70q-14 0-24-10t-11-24v-71q0-14 11-25t24-11h70q15 0 25 11t11 25z m-211 422v280q0 15-11 26t-24 9h-422q-14 0-25-9t-10-26v-280q0-15 10-25t25-11h422q14 0 24 11t11 25z m211-212v71q0 14-11 25t-25 10h-70q-14 0-24-10t-11-25v-71q0-14 11-24t24-10h70q15 0 25 10t11 24z m0 212v70q0 14-11 24t-25 11h-70q-14 0-24-11t-11-24v-70q0-15 11-25t24-11h70q15 0 25 11t11 25z m0 210v70q0 15-11 26t-25 9h-70q-14 0-24-9t-11-26v-70q0-14 11-24t24-11h70q15 0 25 11t11 24z m69 88v-738q0-36-25-62t-62-26h-878q-36 0-62 26t-26 62v738q0 36 26 62t62 26h878q36 0 62-26t25-62z" horiz-adv-x="1071.3" />

<glyph glyph-name="menu" unicode="&#xe85d;" d="M848 71v-70q0-14-10-24t-25-11h-768q-15 0-25 11t-11 24v70q0 14 11 24t25 11h768q14 0 25-11t10-24z m0 280v-71q0-14-10-24t-25-10h-768q-15 0-25 10t-11 24v71q0 13 11 24t25 10h768q14 0 25-10t10-24z m0 278v-69q0-14-10-24t-25-11h-768q-15 0-25 11t-11 24v69q0 15 11 26t25 10h768q14 0 25-10t10-26z" horiz-adv-x="857.4" />

<glyph glyph-name="desktop" unicode="&#xe85e;" d="M993 227v458q0 7-5 11t-13 6h-878q-7 0-12-6t-6-11v-458q0-7 6-11t12-5h878q7 0 13 5t5 11z m69 458v-597q0-37-25-62t-62-27h-298q0-20 9-42l25-63q0-14-10-25t-24-11h-281q-15 0-25 11t-11 25q0 8 9 24t18 39 9 42h-299q-36 0-62 27t-26 62v597q0 36 26 62t62 25h878q36 0 62-25t25-62z" horiz-adv-x="1071.3" />

<glyph glyph-name="doc-inv" unicode="&#xe85f;" d="M569 526v260q13-8 21-16l223-224q8-7 16-20h-260z m-70-18q0-21 16-36t37-16h299v-580q0-22-15-37t-38-16h-738q-23 0-37 16t-16 37v878q0 23 16 38t37 16h439v-300z" horiz-adv-x="857.4" />

<glyph glyph-name="circle" unicode="&#xe860;" d="M849 315q0-114-56-211t-153-153-211-57-212 57-152 153-57 211 57 211 152 154 212 56 211-56 153-154 56-211z" horiz-adv-x="857.4" />

<glyph glyph-name="circle-empty" unicode="&#xe861;" d="M429 614q-81 0-150-40t-108-109-40-150 40-149 108-109 150-40 149 40 108 109 40 149-40 150-108 109-149 40z m420-299q0-114-56-211t-153-153-211-57-212 57-152 153-57 211 57 211 152 154 212 56 211-56 153-154 56-211z" horiz-adv-x="857.4" />

<glyph glyph-name="circle-thin" unicode="&#xe862;" d="M429 666q-72 0-136-28t-112-74-75-112-28-137 28-136 75-111 112-76 136-27 136 27 111 76 75 111 28 136-28 137-75 112-111 74-136 28z m420-351q0-114-56-211t-153-153-211-57-212 57-152 153-57 211 57 211 152 154 212 56 211-56 153-154 56-211z" horiz-adv-x="857.4" />

<glyph glyph-name="mini-cart" unicode="&#xe863;" d="M230 500q0 18 12 31t30 13 31-13 13-31-13-30-31-13-30 12-12 31z m470 0q0 18 13 31t30 13 29-13 12-31-12-31-29-12-30 13-13 30z m-480 119q-31 0-57-16t-41-44-15-59l-66-557q0-32 15-60t41-44 56-16h695q30 0 56 16t40 44 15 60l-66 557q0 32-15 59t-41 44-57 16h-560z m544 0q-13 54-50 97t-93 67-119 25-118-25-93-67-51-97h79q18 53 69 87t114 34 115-34 68-87h79z" horiz-adv-x="1000" />

<glyph glyph-name="paper-plane" unicode="&#xe864;" d="M977 802q18-13 14-36l-139-843q-3-16-18-25-8-5-18-5-6 0-13 3l-249 102-133-162q-9-13-26-13-7 0-12 2-11 4-17 13t-7 21v192l475 580-587-508-217 90q-20 8-21 30t17 32l913 528q9 5 19 5t19-6z" horiz-adv-x="1000" />

<glyph glyph-name="attention-alt" unicode="&#xe865;" d="M313 25v-157q0-19-14-31t-31-14h-179q-18 0-32 14t-13 31v157q0 17 13 31t32 13h179q18 0 31-13t14-31z m21 737l-20-537q-1-17-15-31t-31-13h-179q-18 0-32 13t-15 31l-19 537q-1 18 13 32t30 14h224q18 0 32-14t12-32z" horiz-adv-x="357.4" />

<glyph glyph-name="info" unicode="&#xe866;" d="M354 35v-70q0-15-10-24t-25-11h-280q-15 0-25 11t-10 24v70q0 15 10 24t25 11h34v210h-34q-15 0-25 11t-10 24v70q0 15 10 25t25 10h210q15 0 24-10t11-25v-315h35q14 0 25-11t10-24z m-70 631v-105q0-15-11-25t-24-11h-140q-14 0-25 11t-11 25v105q0 13 11 24t25 11h140q15 0 24-11t11-24z" horiz-adv-x="357.4" />

<glyph glyph-name="compare-link" unicode="&#xe867;" d="M140 836c-47-8-92-38-116-79-17-29-25-59-23-91 1-39 13-70 37-100 23-27 54-47 88-56l7-2v-160c1-167 1-174 8-201 21-82 85-147 168-168 24-6 39-7 109-7h68l-77-77 48-48 79 79 78 79-78 79-79 79-48-48 77-77h-67c-61 0-69 1-84 4-53 10-93 41-117 89-18 37-17 23-18 213v164l7 2c52 13 94 50 114 100 40 99-23 210-129 226-17 3-35 3-52 0z m336-74l-66-66 23-23-24-25 134-134 48 48-77 77 73-1c84-1 87-1 121-18 23-11 40-25 55-44 11-13 23-36 29-52 8-25 8-30 8-198v-158l-7-1c-86-23-140-108-123-194 14-69 67-120 137-132 18-4 46-3 63 1 105 25 160 140 113 236-7 14-15 26-24 37-21 23-54 44-85 52l-7 1v161c0 167-1 173-8 201-19 72-71 131-140 158-37 15-56 17-141 17h-64l76 76-23 24c-12 13-23 23-23 23s-31-29-68-66z m-291 8c29-5 58-27 72-55 13-27 13-58-1-87-8-18-28-38-45-46-28-13-61-13-89 0-17 8-36 28-45 46-19 40-11 83 20 114 24 24 53 34 88 28z m667-667c27-4 58-27 70-53 15-29 15-59 1-88-5-12-9-17-20-28-22-21-45-30-75-28-27 1-45 9-64 28-18 17-26 34-29 56-5 34 5 62 28 85 24 25 54 34 89 28z" horiz-adv-x="1000" />

<glyph glyph-name="cat-default" unicode="&#xe868;" d="M8 316q0 134 67 248 66 111 177 176 115 67 248 67t248-67q111-65 177-176 67-114 67-248t-67-248q-66-111-177-177-115-67-248-67t-248 67q-111 66-177 177-67 115-67 248z" horiz-adv-x="1000" />

<glyph glyph-name="cat-computer" unicode="&#xe869;" d="M303 749q-21-7-31-17-11-13-17-30-1-4-2-10l-2-33v-50l6-6 15-2q18 0 23 1t7 4 1 9v29q0 32 4 40v0q0 2 6 8l4 4 3 2 4 2h594l4-2q13-7 16-18 1-4 2-36v-375l-2-8q-4-11-14-16l-4-2-254-2h-254l-4-4q-2-1-2-4t-1-17 1-19 4-5h4q41-2 75-2h76l2-4q1-2 1-21 0-15-1-19-8-4-16-4-2 0-8-2l-19-4-9-3q-23-8-26-11l-2-2-2-1-3-3q-17-13-9-27t38-24q20-6 71-15 15-1 45 0 27 0 41 2 52 8 66 13l3 2 4 1q1 0 3 1l1 1q3 0 10 4t13 10 7 8 1 6q0 9-12 18t-34 16q-6 4-38 10-9 1-12 2t-3 6-1 17v16q1 4 2 5t20 2h107q71 0 127 2h6q36 8 52 45l1 8v226q0 225-1 231-11 34-46 45l-8 4h-581q-49-1-52-2z m-269-204q-16-3-23-18-1-3-2-44v-582l2-4q9-11 15-15 3-1 23-2h256q22 1 26 3t8 6l5 4 1 2q3 3 4 16 1 17 2 81v482q0 34-1 44-1 7-4 11l-2 2q-3 5-5 7t-9 5q-3 1-22 2h-274z m273-57q4-3 5-9t1-35v-28q-1-8-2-11t-6-3h-254l-2 2q-3 1-4 2t-1 11v65l7 6h256z m-2-131q4-1 6-4t2-11v-65l-2-4-4-2h-239q-18 1-19 2l-5 2v36q0 37 2 39v1q2 3 8 4t33 2h218z m-118-259q14-3 25-13t16-22q3-19-5-35t-24-24-34-3q-14 5-23 15t-12 24q-3 6-3 10t3 13q6 25 35 35 13 2 22 0z" horiz-adv-x="1000" />

<glyph glyph-name="cat-couch" unicode="&#xe86a;" d="M343 806q-1 0-2-1-4-1-8-1l-10-3q-14-4-21-5-27-10-51-31t-39-45q-14-22-21-51-3-13-3-26t-1-74l-2-77h-18q-16 2-38-4l-9-4q-13-6-15-7-24-15-35-36-2 0-10-20-2-2-5-16l-1-3q-1-5-1-110t1-111q3-14 7-23t11-17q13-23 40-36 12-7 25-10 10-2 30-4h18l2-125v-93q0-27 1-35 1-6 4-8l1-1q3-3 6-4t12-2h76l5 4q4 1 8 5t6 7q3 6 6 18l4 16q3 12 3 18 2 2 5 14l1 3q4 12 4 15t2 7 5 18l11 46q3 3 5 18 1 5 3 13l3 15q4 13 5 15t1 4 1 3q5 26 8 29h252l4-10q2-13 6-25 0-5 4-13 0-3 2-8t3-8 1-11l1-4q1-6 2-8t2-7 2-5l4-16q3-12 3-18t4-11q0-2 1-8l1-4 4-12q0-1 2-11l3-9q3-12 4-14t5-18l4-16q2-13 6-18t11-10l6-4h79q8 1 11 2 5 3 10 12 1 4 1 129v125h18q19 0 40 6 29 9 48 32 8 8 12 14t9 19q1 3 4 11l2 8q0 4 2 5t2 107-1 107-3 1v3l-2 8q-3 9-4 11l-4 8q-5 10-17 25-17 19-34 26-28 13-52 10h-18l-2 77q0 81-1 85 0 2-1 6t-1 7q-6 25-21 50t-35 45q-18 16-43 27t-48 15q-2 0-4 1l-1 1q0 2-156 2t-157-2z m311-46q11-2 28-7l5-1q21-9 39-27t28-38q5-10 10-30l2-7q1-7 2-21v-157l-2-2q-29-23-39-55-3-10-3-18t-1-39v-42h-447v75q-1 9-2 13-3 14-8 24t-14 22-19 20l-2 2v84q0 65 1 78t3 28v1q2 7 5 16l4 9q20 38 60 60 18 8 37 12l11 2h270q26-1 32-2z m-475-314q12-3 16-5l5-2q3-2 11-10t9-12l2-1q2-3 2-4 4-4 5-15 1-4 2-13v-45q0-41 1-49t4-12v-1q6-3 9-5t37-2h434q35 1 38 2t8 5l1 1q4 5 5 12t0 49q0 52 1 60 5 21 21 34t35 16 38-7q12-5 21-15t12-21l1-1q3-9 4-23t0-89 0-89-4-23l-1-2q-4-12-14-23t-23-15l-2-1q-6-3-24-3h-631q-48 1-53 2-2 0-7 1l-3 1q-12 5-23 16t-13 22l-1 2q-4 9-4 23t-1 89v84q1 16 2 20 3 12 6 18t10 14q10 8 18 12t20 7q7 3 26-2z m146-357q0-1 0-4t-2-6l-2-6q-1-4-2-5 0-7-3-16-4-14-4-17t-2-9-4-10q-4-12-4-17t-1-7-4-11q-3-13-4-15t-1-8q-1-1-2-6l-1-3q0-2-1-8l-1-4q-2-4-2-8-2-2-5-14t-4-18-5-20l-3-10h-37v224h86q8-1 8-2z m443-109v-113h-38q-3 3-7 28 0 5-6 17l-4 22q-1 5-1 7l-3 6q-1 4-1 5 0 6-2 6v6q-2 2-5 14l-1 3q-4 14-4 16t-4 19q-5 10-5 17l-4 18q-4 14-4 16t-2 7l-2 7q-1 3-2 7v3h95v-111z" horiz-adv-x="1000" />

<glyph glyph-name="cat-garden" unicode="&#xe86b;" d="M841 666q-9-3-14-7t-10-11q-1-4-1-54v-51l-4-4-45-35-46-39q-4-3-5-5l-5-4q-6-5-11-10l-16-13q-19-16-29-24-32-27-37-29-2-4-10-8l-9-9q-2-2-2-1-2 0-2 24l-1 25q-3 97-5 120l-2 65q-2 25-3 31t-7 12l-2 2q-4 4-12 5-12 1-55 2h-310q-34-1-37-2-16-6-19-23l-1-7q-1-19-1-31t-1-23l-1-9q-1-1-13-2h-40q-53 0-57-2-9-3-15-16l-2-6v-128q1-10 2-13 2-7 13-16l20-12 3-3q5-3 7-5 4-1 9-4l12-7q12-8 16-12 3-1 7-4t5-2l9-6q4-4 10-7l2-2-2-30q-3-66-3-91t-1-102v-89q1-14 2-18t6-7 10-5 37-2h371q29 0 37 2 6 1 10 5l2 3q6 5 7 11t-1 26v123q0 39-2 101v20q0 6-1 18l-1 7v10l6 4 5 5q11 9 18 14 11 11 49 41l30 25q15 12 17 13t8 7l23 20 39 31q18 15 24 21 1 2 16 13l11 8q4 6 7 7t5 1q2-2 9-2l8-1q9-1 12-2t12-1 13-2q12 0 28-4 17-2 27 0t16 10q5 6 7 11t2 13-2 13-11 15l-36 41q-8 9-11 12-16 16-20 22l-33 35q-5 5-10 8t-13 3-12-3z m-311-102q2-15 2-64 1-10 2-35t2-32l1-53q2-51 3-74 0-11 1-36l1-25q2-16 2-125v-102h-367v82q0 86 2 106 0 8 1 26l1 11v25q2 8 2 40 4 53 6 101 0 11 1 28l1 7q0 22 1 38 1 46 3 87l1 21q1 1 29 2h139l166-2v-26z m-396-76q0-8-1-48l-1-33q-2-6-2-21v-10q0-2-2-2-4 0-4 2l-2 2q-3 2-6 3t-6 4-5 3l-5 3q-13 8-15 10-4 0-10 6l-8 6v79l10 1q13 0 24-1h35z" horiz-adv-x="1000" />

<glyph glyph-name="cat-gift" unicode="&#xe86c;" d="M363 806q-1 0-2-1t-2-1-11-4l-14-4q-9-5-19-14t-13-14q-6-13-8-19t-2-18 4-21 11-23q1-3 4-7t2-5l6-8q11-13 19-21 3-2 5-5l1-2-16 4q-6 3-9 3t-15 6q-46 15-96 25-46 8-82 10h-16l-4-4q-10-7-10-18t8-15l4-4 24-1 16-2q13-1 15-2 17-2 39-6l7-2q2 0 7-1l3-1q2 0 5-1 7-2 15-4t32-9q3 0 9-3l2-1q2 0 7-1l3-1q1-1 3-2h1q4 0 6-1t9-3l4-1q3 0 11-4l7-3q6-2 7-2 4 0 6-2l9-3q3-2 4-3t5-1l6-3q3-2 4-2 5-2 16-7t11-5q4-1-4-2t-40 0h-100q-114 0-134-1t-32-3l-3-1q-13-6-23-17t-15-23q-3-9-3-19t-1-57q0-50 1-61t5-21v-1q5-7 15-18l5-6q9-7 22-12 6-1 10-2h18q9-1 16-2h6v-398q1-30 2-36 6-23 19-36 17-17 36-26h1q6-2 18-3 16-1 74-1h414q49 1 55 2 15 2 34 15t27 35l2 4q3 7 4 17 1 14 2 60v367h3q16 2 29 2 25 0 32 1t17 5q16 13 22 20 5 4 10 13t4 15l2 2q1 2 3 2t1 62-1 63-4 3l-1 3q0 5-5 13t-9 13q-19 21-40 25-7 1-27 2h-227q-33 0-41 0t-4 2q1 1 11 5t15 7l9 4q12 5 14 6l8 2q4 4 10 5t14 3l40 14 10 2q19 7 59 16 35 9 84 12 15 1 18 1t5 4q8 5 8 15 0 13-10 18l-3 4h-20q-5 0-17-1l-13-1-14-2q-28-5-40-8-4 0-16-4t-25-6l-13-4q-13-3-17-4t-16-5l-5-2q-7-2-8-2t-3-1-3-1q-4 0-13-3l-10-4q-1 0 1 2t5 5q35 42 40 66 5 11 5 23t-4 22-16 21-23 18l-6 2q-12 6-17 6-1 0-3 1l-1 1q-1 2-14 2t-13-2h-1q-2-1-3-2-5 0-17-6-25-13-46-46-9-13-19-37t-16-38q0-4-2-6l-1-3q-1-5-1-7l-2-3q-1-2-2-2l-2 5q-3 6-4 12-3 12-9 24l-2 7q-1 0-1 4l-18 34q-16 25-28 38-14 14-30 20l-6 3q-4 1-5 1t-3 1-2 2-13 1-13-2z m23-44q14-5 29-24t26-48l3-10q2-7 5-11 0-2 1-7l1-3q3-5 7-19t5-23q1-3 3-8l1-5q3-11 0-11l-3 2q-4 2-5 2l-6 3q-2 2-12 10l-7 5-6 6q-46 38-65 58l-4 6q-11 16-11 17l-4 4q-10 13-10 26 0 8 2 12t8 8q10 8 22 11t20-1z m246 0q22-7 27-18 5-8 2-19-6-19-26-42t-61-56q-8-7-26-21t-20-13h-2v2q2 2 2 5l6 23q0 4 4 16l2 5q1 3 2 4v6l6 13q1 11 16 45 23 43 45 52 4 2 11 1t12-3z m-155-316v-79q-1-1-35-2h-285q-43 1-45 2-5 0-8 2t-10 8l-1 2q-4 4-5 8t-2 17v90q1 8 2 12 6 13 20 17 3 1 31 2h338v-79z m413 77q5-1 11-7t8-10 2-14v-101l-4-6q-6-15-21-18-4-1-184-1t-181 1l-1 70q0 73 1 86 0 1 36 2h302q28-1 31-2z m-413-200q2-1 2-228t-2-228h-244q-17 1-20 2-18 9-25 26-1 4-2 37v180q0 211 2 211 0 2 145 2t144-2z m311-213v-213l-2-6q-5-12-19-20l-8-4h-238q-1 2-1 228t1 228h267v-213z" horiz-adv-x="1000" />

<glyph glyph-name="cat-shirt" unicode="&#xe86d;" d="M257 688q0-1-30-16l-58-29q-33-17-62-31l-27-14t-7-4l-5-3q-5-1-10-4l-4-2q-1 0-5-2l-2-2q-6-4-10-5t-4-3q-16-5-21-12-2-4-2-13t2-11l16-22 5-9q9-15 10-16t3-4l12-19 4-4 2-6 4-4 7-10q0-3 2-5 4-4 4-6t26-38 28-38 10-6q3-2 6-1t16 5q2 0 10 4l12 1q4 4 10 4l5 2q4 1 6 1t5 2 6 1q8 4 12 4 1 1 3 2h5v-418l4-4q3-4 8-8l4-2h484l4 2q5 4 8 8l2 4 2 209v209h2q6 0 7-2 3 0 11-4 2 0 7-1l3-1q2-1 6-2t7-2 6-2 4-2l11-1q1-1 5-3t5-1q14-4 17-5t6 1q6 3 9 5t24 34 22 34l4 6 4 3q0 2 4 6 2 2 2 5l4 4 4 6 1 4 4 6 4 4 4 6v1l2 4 4 3 5 9q6 10 12 19l19 28v1q1 1 2 1t2 2v14q-1 2-2 2l-2 2q-1 3-6 7t-8 4l-2 2t-5 1l-2 2q-1 0-2 1t-2 1h-2l-2 2-7 4q-3 2-4 2l-1 1q-2 1-3 1h-1q-1 1-1 2-3 0-9 4-9 3-12 6l-26 13q-32 15-62 31l-38 19q-50 25-50 26h-145q0-1-1-2l-1-1q-2 0-6-5t-6-8-2-10q0-29-24-56-14-12-34-19-7-3-23-3t-21 3q-19 4-34 17t-22 33q-4 14-4 25 0 4-1 8l-1 3q0 2-4 7t-7 5-3 3h-145z m117-49q0-1 1-3t1-4 4-14 7-17l4-4q3-7 14-18t19-16q13-11 28-17 13-6 32-9 11-1 16-1t14 1l10 2h4q0 2 7 3t20 7 20 12 19 18 13 18q4 4 4 7 3 1 7 12t4 17q2 4 2 8h103l79-40q46-22 46-24h4q0-2 4-2l1-2 4-1q1 0 2-1t2-1h1q2-1 3-2t6-2l8-3q2-2 6-4l3-2q2 0 7-3t10-7q13-6 16-8t0-4-2-4l-4-4q-1-1-2-3v-2l-4-3-8-12-1-4-4-6-4-4q0-4-6-10l-5-8q0-2-4-6t-4-6l-21-31q-20-31-23-31h-2q-3 1-4 2l-10 2q-8 4-11 4t-11 4q-2 0-6 1t-6 1q-4 4-10 4-8 2-15 5l-3 1q-1 1-2 5v13q-2 10-2 20l-6 8q-7 7-16 7t-15-7-7-9-2-53v-420h-420v237q0 152-1 232v5q0 2-6 8t-17 7-16-7l-6-8v-3q-2-10-2-17 0-16-1-18l-2-1q-7-2-17-5-4 0-12-4l-3-1q-5-1-7-1-6-4-10-4t-12-4q-2 0-7-1l-3-1q-1-1-4-2h-2q-2 0-20 28l-16 22-34 52q0 2-8 10-1 4-4 7l-2 2-1 2q-1 2-1 3l-3 4q0 1-1 2t-1 2q-3 3 0 6 2 0 26 13l10 5q4 2 6 4l9 3 1 1q2 1 3 1l2 2q1 0 3 1l1 1q2 0 4 1h4q0 1 1 2h1q1 1 3 2h1l1 1q1 1 2 1l2 2q3 0 61 31l60 29h101z" horiz-adv-x="1000" />

<glyph glyph-name="cat-sport" unicode="&#xe86e;" d="M264 806q-1 0-3-1t-3-1q-25-3-45-21t-28-43q-13-37 7-72t58-47q6-2 24-2t24 2q45 12 65 60 4 14 4 31 0 13-1 17t-5 15q-7 26-30 42-18 15-41 18l-6 2q2 2-9 2t-11-2z m18-56q11-3 22-14 6-9 8-17 3-13-2-24t-18-18q-6-3-8-4t-10 0-16 4q-16 6-22 25-1 10 0 21 7 21 30 27 5 2 8 2t8-2z m385-10q-6-1-15-3-17-3-33-7l-6-1q-13-3-23-8-7-3-13-3-1 0-3-1l-3-3q-1 0-6-2-9-4-15-6-11-6-28-16l-34-22q-3-2-6-5-18-14-24-18l-1-1q-26-25-37-37-18-19-29-36-5-6-14-19l-8-12v-1q-1-2-2-3-6-8-14-25t-13-30q-4-4-4-8-1-1-5-15t-4-16l-4-13q-6-30-9-58 0-15-2-17v-10q0-9-2-17 0-13-4-33 0-6-1-17l-1-11q0-3-1-11l-1-7q0-13-2-21 0-5-1-17l-1-15q-1-5-2-16t-2-14q0-16-2-20v-8l-219-220h-5q-19 0-26-15-4-6-3-14t4-13 26-27 27-23 12-1 11 1l1 1q7 5 11 10 2 3 2 5v19l26 27q26 24 96 94 69 68 81 81l3 2q13 11 15 11l3 1q4 1 8 1 48 4 64 6h21l5 1q8 1 13 1t24 2l14 1q20 0 36 4h20q3 0 11 4 6 2 19 2 22 2 67 12l33 11q45 20 77 40 15 10 39 28 6 6 14 13l13 12q40 40 66 84 19 29 35 69 3 9 6 16l2 6 2 10q3 6 6 26 6 15 6 41l2 15q1 2 2 1v12q-1-1-2 1l-2 19q-1 29-12 60t-29 59q-37 54-90 81-8 4-8 5-4 2-14 5t-17 4q-24 8-46 12-37 4-75 0z m106-63q32-11 46-22l6-5q1-1-3-6l-22-21q-9-10-19-19l-8-8q-3 0-27 25-10 9-18 18l-7 7q0 2 15 19l18 16h4q5 0 15-4z m-144-18q6-5 12-11 0-1-26-27l-27-25q-2 0-23 21t-21 22 5 4l20 9q13 7 27 13t17 6 11-8z m244-57q5-6 11-18t7-17l7-25 2-4-18-17q-18-17-18-18t-27 26-26 27l27 27q28 26 29 26l2-2q2-3 4-5z m-167-21q12-12 24-25 1-1-21-25t-28-27q-1-1-3 0l-25 25-9 10q-15 16-15 17t24 25 26 24 10-7 17-17z m-183 0q8-9 17-18l8-7q0-3-26-27-24-25-27-24t-26 23-23 25 25 26 27 25l8-7q9-8 17-16z m277-93q13-12 25-24l-27-27-27-28-25 28q-25 23-25 27l7 8q9 10 18 18l22 22q4 3 5 2z m-185 0q3-3 8-7l14-14q3-4 3-5t-25-26-27-25-27 25-25 28 25 26 27 24l7-6z m-184-51q-9-9-19-18l-9-8q-2 0-11 10t-9 14q0 5 12 34t18 35q0 1 4-2l39-38z m92-40l25-26-25-25q-8-9-18-19l-9-8q-1 0-26 25t-26 27l25 28 5 5q20 19 22 19 14-14 27-26z m183 2l19-19 7-9q0-1-25-27t-27-25-26 25-25 27 26 27 26 25l7-7q9-9 18-17z m169 14q11-9 13-12t0-8l-1-2q-6-16-17-38t-15-24q-1 0-12 11l-10 10q-14 12-18 16t-3 7 26 26 26 24 11-10z m-444-107q16-17 21-23t2-6l-19-18q-29-28-30-28t-9 13-11 24q-3 7-6 16t-4 14v6l23 22q4 5 5 5z m182 0q10-9 20-19l8-9q0-1-26-26l-27-25q-1 0-26 25t-26 26 26 27 26 26z m185 0l23-24v-4q-2-1-20-19t-23-21q-2-3-6-5l-3-2q-1 0-24 23t-24 24 25 27 25 26 13-11z m-275-92l25-27-14-14-14-16-10 2-10 3q-15 4-25 9l-14 9q-11 7-13 9l-2 2 25 24q24 23 25 23l9-7q10-9 18-17z m177 5q11-10 21-21-2-4-28-17t-40-14l-5-2-9 10q-4 4-7 8l-3 4q0 2 25 26t26 25 20-19z m-341-19q10-14 24-29 16-16 30-26l4-4q4-3 4-4h-6l-4-1q-8-1-12-1l-8-1q-12-1-17-1t-16-1l-4-1h-6v6q0 14 4 52l1 8q2 7 3 7z" horiz-adv-x="1000" />

<glyph glyph-name="cat-toys" unicode="&#xe86f;" d="M260 633q-14-3-34-9t-26-9q-3 0-10-5-30-13-64-45-25-28-39-60l-5-12q-11-22-14-27l-3-9q-2-7-2-9l-2-3q0-4-1-6t-4-8l-3-8q-9-28-14-53l-2-7q-1-5-1-8t-5-15l-2-16q-4-13-9-54-7-40-8-86-1-42 4-72 7-49 27-77 16-24 42-33 11-3 16-4 7-2 19-2 18 0 32 4 11 2 37 12 30 14 49 25t51 37l19 13q19 14 20 14l3 2q3 2 5 4l7 3q10 3 14 6l7 3q5 3 6 3l1 1q2 1 4 1t9 4q56 22 117 22t116-22q8-4 10-4t3-1l1-1q3 0 19-8l3-2q13-7 16-7l4-4q2 0 39-29 8-5 22-15t25-16l12-8q38-19 40-19h2v-2q1 0 7-2l10-4q16-6 27-8t24-2q40 0 65 26 7 6 14 16t8 15q3 9-2 17t-14 10q-8 3-14 0t-13-12q-4-5-14-15l-5-4q-10-6-25-6t-33 6q-4 1-23 10l-10 4q-10 4-23 13l-3 2q-3 2-12 7l-2 2q-9 5-30 22l-13 9q-31 22-34 24-1 0-3 1l-7 3q-32 17-38 19-17 8-50 18-2 1-7 2t-7 2l-8 2h-10q-15 4-28 4-9 1-38 1t-39-1q-14 0-30-4h-10l-8-2q-8-4-12-4-21-6-33-10-1-1-4-2t-5-2-5-2l-2-2-3-1q-19-8-26-12-11-5-22-11t-27-18l-20-14q-22-18-24-18l-9-6-15-11q-8-4-10-4-6-5-21-12-13-5-24-9-17-6-32-6t-26 6q-24 14-32 66t0 127q2 20 8 52 4 26 8 42 2 4 2 8t2 8q0 5 4 11l2 8q1 11 4 19l12 38q2 8 3 9l1 4q1 3 1 5 4 8 4 10l3 7q14 26 17 34l4 6q2 4 11 15t12 15q20 20 33 28 4 3 19 10t16 7h5q4 4 26 8 9 2 34 2t32-2q17-4 29-9 10-3 31-12 8-5 20-10l3-2q26-9 39-11t52-1q35 0 45 0t22 4l37 15q7 3 13 7 18 7 20 7l36 12q9 2 35 2t33-2q20-5 26-8t15-5 9-4l6-2q18-10 37-29t33-43l24-54 2-8 6-14q3-12 3-16 1-1 2-4l2-5q1-6 4-17t4-16q1-2 2-8t2-7q14-45 21-111 4-30 4-76 0-7 2-12l1-3q6-11 17-12t19 8q5 4 6 11t-1 34q0 39-4 76-5 39-17 89l-2 5q-2 7-2 8t-1 6l-1 5-1 4t-2 6-1 6l-8 23-3 16q-2 7-5 14l-5 11-1 3q-1 5-1 7-4 4-4 8t-4 8q0 1-1 3l-1 1q0 2-8 18t-11 20q-8 16-22 32t-28 28q-22 18-35 24l-6 4q-2 2-15 7t-22 6l-4 1q-17 5-29 7-4 2-31 2-24 3-37 0-19-2-44-10-5-3-13-7t-18-8l-39-17q-14-4-21-5t-40 0-39 0-20 5l-8 3q-15 5-32 14l-22 10q-4 2-15 5-8 3-24 6l-16 4q-8 2-31 2t-33-2z m438-138q-10-5-16-13t-9-22q-1-6 3-15t10-15 16-10 21 2 19 14 7 22q0 23-23 35-6 3-13 3t-15-1z m-419-2q-10-3-13-11-2-4-3-10-1-10-1-33v-39h-39q-23-2-44-2 0-1-2-3t-4-1q-8-7-8-17t5-17 15-8h77v-39q0-30 1-36t3-9q3-8 11-12t14 0q8 0 16 12l2 6v39q0 39 2 39h81l4 4q4 3 8 8t3 10q0 7-4 14t-11 10h-44l-39 2v72q-1 7-2 10-5 7-13 10t-15 1z m334-82q-14-6-20-19t-3-29q2-5 7-11t9-8q14-10 32-6t25 22q3 6 3 15t-3 15q-6 11-19 19-7 3-16 4t-15-2z m172 2q-8-3-15-9t-7-8l-2-2q-1-1-3-8t-3-10q0-12 6-20t14-14 18-6q16 0 28 11t11 29q0 11-7 21t-18 14q-4 2-22 2z m-89-87q-4-2-10-7t-7-8q-9-14-6-28 5-16 19-25t30-2q13 3 20 12t7 23q0 24-21 35-8 2-18 2t-14-2z" horiz-adv-x="1000" />

<glyph glyph-name="tag-line" unicode="&#xe870;" d="M941 321l-488-489q0-1-2-3-6-6-15-6t-15 6q-2 2-2 3l-360 359-3 2q-7 7-5 16-2 8 5 15l3 2 488 488q8 8 17 8h87q2 24 12 44t24 35v-1q5 8 17 8 9 0 16-8t6-17-9-19q-16-16-20-42h103q11 0 17-8l124-125q8-6 8-17v-235q0-10-8-16z m-221 152q-6-8-16-8t-16 7-7 19 8 18 15 19q-14-4-23-15t-9-26q0-18 12-31t30-12 31 12 12 31q0 14-9 27-6-15-13-26-6-7-11-12z m187 91l-115 115h-90q6-13 15-24v0q1 0 3-2v1q18-16 28-40t9-51v-2q20-11 32-31t11-43q0-35-25-61t-61-25-60 25-25 60 24 60 58 26q-3 29-21 45-1 0-2 2l-1 1v-1q-25 24-34 60h-81l-471-470 334-336 472 472v219z m-614-318q6 6 14 6t14-6l151-152q7-6 7-15t-7-14-15-7-14 7l-150 151q-7 6-7 14t7 16z m85 85q6 6 15 6t15-6l151-151q5-6 5-15t-5-15-15-6-15 6l-151 151q-6 6-6 15t6 15z" horiz-adv-x="1000" />

<glyph glyph-name="bag1" unicode="&#xe871;" d="M386 808q-58 0-106-28t-76-77-29-105v-15h-148q-9-1-15-8t-6-14v-606q0-36 18-67t48-48 66-17h496q35 0 66 18t48 48 18 66v606q0 9-7 15t-15 7h-146v15q0 57-28 105t-77 77-107 28z m0-46q47 0 86-22t61-60 22-82v-15h-336v15q0 45 23 82t60 60 84 22z m-334-223h670v-584q0-37-25-63t-62-25h-496q-36 0-61 26t-25 62z m144-56q-18 0-31-13t-13-32 13-32 31-13 32 13 14 32-13 31-33 14z m381 0q-18 0-31-13t-14-32 14-32 31-13 32 13 13 32-13 31-32 14z" horiz-adv-x="772.5" />

<glyph glyph-name="search-1" unicode="&#xe872;" d="M978-93l-349 350q33 44 51 96t18 110q0 93-47 174-46 78-124 124-81 47-174 47t-174-47q-77-46-123-124-47-81-47-174t47-174q46-77 123-123 81-47 174-47 58 0 111 17t95 51l351-349q14-15 35-15t34 14 14 35-15 35z m-625 310q-66 0-123 33t-90 89-33 124 33 123 90 90 123 33 123-33 90-90 33-123-33-124-89-89-124-33z" horiz-adv-x="1002" />

<glyph glyph-name="plus" unicode="&#xe873;" d="M919 430v-228h-342v-343h-227v343h-342v228h342v341h227v-341h342z" horiz-adv-x="921.9" />

<glyph glyph-name="minus" unicode="&#xe874;" d="M31 207v216h865v-216h-865z" horiz-adv-x="921.9" />

<glyph glyph-name="search-2" unicode="&#xe875;" d="M341 807l-2-1q-8-2-13-2-24-3-36-6t-36-9q-45-16-69-32-3-5-9-5l-6-4q-3-3-5-4l-2-1q-1 0-15-10l-13-11q-25-21-48-48-7-9-12-16l-4-8q-2-3-4-4l-2-4q-2-3-2-4t-2-3-1-4q-4-3-13-22t-12-27-8-22-7-22-6-30l-4-22q-2-13-2-38t2-38l8-45q1-8 6-23 2-9 12-32l4-9q4-8 5-10t4-9l4-8q22-41 59-78t80-62q22-12 37-18 17-7 43-15 4-1 21-4l24-5q15-2 50-2t50 2l23 4q18 4 23 5l10 3q18 6 20 8 4 0 11 5 7 1 22 8t17 11q3 0 11 4 1 3 4 4h3l15 11q15 11 17 14l13 11q3 2 6 5t3 3l30 33 24 32q0 2 2 6l8 11q5 8 10 18l6 14q5 12 9 20t8 31l1 5q7 19 10 41 2 14 2 47t-2 53q-12 68-34 110l-10 17q-14 23-25 40-42 48-72 70l-16 10q-15 9-16 10t-4 2l-1 1q-12 7-34 17t-36 15-28 7-43 6q-10 2-34 3t-29 0z m56-96q21-3 37-7t38-13q25-10 51-29t42-38q7-7 17-19t9-15l4-7q4-5 12-19t8-20q9-25 12-44 3-17 5-42 0-44-7-72l-6-19q-3-11-4-11v-5q0-3-15-31t-20-32l-3-2q-3-2-4-5-6-7-18-20t-21-19q-17-15-50-32-92-44-197-16-33 11-54 25l-3 2q-5 2-6 2-8 6-21 17-17 14-24 22t-20 22-13 17l-1 2q-2 2-3 5l-3 6q-15 26-17 35-2 2-5 10l-2 3q-1 2-4 15l-4 15q-1 8-2 26t-2 29 2 30 2 26q4 8 4 17 5 21 26 61 5 3 5 7 3 7 14 21t23 26 29 24 27 18q0 2 7 5l2 1q31 18 73 25t80 3z m317-529q-5-11-69-72l-5-4q-10-7-10-9l38-38q48-47 92-92 65-67 94-95t40-37q8-6 18-9l2-1q20-6 39 5 22 8 33 30t4 42l-1 2q-3 10-8 17-9 11-36 40-24 24-94 95l-132 130q-2 0-3-2t-2-2z" horiz-adv-x="1000" />

<glyph glyph-name="bag-1" unicode="&#xe876;" d="M388 805q-6-2-12-3t-10-6q-14-5-32-25-5-6-11-19t-7-15l-1-3q-1-5-2-9t-2-21v-137h-164l-2-2q-1-4-3-36t-2-55l-1-24q-1-27-1-39-2-24-2-67l-1-23q-1-28-1-41-2-23-2-66l-1-23q-2-28-2-43-4-42-4-62 0-43-2-65 0-12-1-41l-1-25q0-43-3-64 0-13-1-39l-1-29h711q57 1 57 2 0 27-2 55 0 16-1 49l-1 21q0 36-3 57 0 14-1 41l-1 20q0 42-2 66-2 21-2 60l-1 24q-2 27-2 39-2 21-2 61l-1 23q-1 27-1 39-2 22-2 66 0 28-5 71l-2 50h-164v136q-1 16-2 22-5 21-14 35t-23 25q-7 5-17 11l-7 5q-3 0-13 4-8 2-24 2t-90 1h-90q-17-1-23-3z m214-73q5-4 9-9l7-9v-147l-118 2h-116v68q-1 38-1 55t2 26q2 4 6 9l9 7h183q16-1 19-2z" horiz-adv-x="1000" />

<glyph glyph-name="online-support" unicode="&#xe877;" d="M500 808q-129 0-219-52-80-46-123-128-39-73-43-162v-145q-21-24-21-66 0-36 22-65t55-35q56-143 116-220 85-112 191-112 115 0 203 129h-54q-36-43-73-64t-78-21q-77 0-143 77t-128 240l-5 12-12 2q-22 0-37 17t-15 40q0 18 7 31l70-33q5-2 11-2t10 4q8 5 8 18v153q45 0 120 17 57 13 105 35 57 26 95 62 36-48 89-80 32-20 63-30v-157q0-13 9-18 4-3 10-4t10 2l33 17v-72h-9l-13-2-4-12q-33-84-66-144 45 7 68 33 6 13 16 39 12 30 19 43 8 4 13 4v-15q0-35-17-64t-47-46-65-17h-90q-7 18-23 29t-38 12h-42q-26 0-45-19t-19-45 19-44 45-19h42q21 0 38 11t23 31h90q47 0 86 23t62 62 23 86v21q26 0 45 19t19 45v87q0 26-19 45t-45 19v86q-7 141-82 218t-209 80l-44 44h-7z m-9-44l44-42h8q141 0 207-92 46-64 50-164v-86h-2q-10-1-16-8t-6-14v-40l-20-11v136q0 8-4 13t-11 7l-17 7q-22 9-42 21-29 17-52 37-29 25-47 55-5 10-21 10-6 0-13-7l-1-1q-30-35-87-63-50-24-108-37-32-8-67-12-25-4-48-6l-19-1q-8-2-13-8t-6-15v-136l-46 21v138q7 102 59 172 47 63 124 96 70 29 154 30z m329-428h22q9 0 15-6t5-14v-87q0-8-5-14t-15-6h-22v127z m-342-319h42q10 0 17-7t6-16-7-15-16-6h-42q-9 0-14 6t-6 16 6 15 14 7z" horiz-adv-x="1000" />

<glyph glyph-name="shopping-bag" unicode="&#xe878;" d="M500 808q-51 0-94-26t-69-69-26-94v-39h-186l-3-35-38-681-3-41h838l-42 757h-188v39q0 51-25 94t-69 69-95 26z m0-77q30 0 57-16t42-41 15-55v-39h-228v39q0 30 16 55t42 41 56 16z m-305-226h116v-114h75v114h228v-114h75v114h116l33-606h-676z" horiz-adv-x="1000" />

<glyph glyph-name="us-dollar" unicode="&#xe879;" d="M500 808q-134 0-249-67-111-66-176-177-67-115-67-249t67-248q65-112 176-177 115-67 249-67t249 67q111 65 176 177 67 115 67 248t-67 249q-65 111-177 177-114 67-248 67z m0-42q123 0 227-61 102-60 162-161 61-105 61-228t-61-228q-60-102-162-162-104-61-227-61t-227 61q-102 60-162 162-61 105-61 228t61 228q59 102 161 161 105 61 228 61z m-19-143v-57q-53-3-87-28-26-20-39-53-9-24-9-49 0-49 24-79 19-25 58-41 23-9 73-21 43-10 61-17 31-11 46-28 18-20 18-51t-17-56q-31-43-107-43v0q-36 0-66 16-60 31-58 112h-44q3-91 54-131 33-25 93-32v-57h41v57q62 4 99 35 28 23 40 58 7 22 7 41 0 46-23 75-20 24-58 39-23 9-73 21-43 10-62 17-30 12-46 28-18 20-18 51 0 44 21 69 27 32 93 32 105 0 111-112h44q2 32-12 63-15 35-44 57-33 25-79 27v57h-41z" horiz-adv-x="1000" />

<glyph glyph-name="shipped" unicode="&#xe87a;" d="M48 676q-10-4-19-14t-14-21l-4-6v-451q0-57 1-74 1-14 3-17 4-15 13-24t24-15q4-1 13-2h73q10-1 10-2 2 0 2-6 1-10 10-26t16-23q18-21 23-23 1 0 3-1t3-1l6-4q1 0 3-1t3-1q8-4 10-4 13-6 38-6t40 6q4 0 8 4 1 0 3 1l2 1q2 0 6 4l6 2q8 3 26 23 7 8 15 23t8 26q1 1 2 3t3 4 147 1 148-1 1-7q3-12 10-26 8-16 15-23 18-20 26-23l1-1q2-1 4-1 4-4 6-4l6-2q8-5 18-7l4-1q8-3 25-3t25 3h2l11 3t9 5l6 2q2 0 6 4 2 0 4 1l3 1q6 3 24 23 8 8 16 23t9 26q0 6 3 7t15 1q25 0 31 6 0 2 4 2 1 0 10 9t9 12l2 2q4 4 5 9t1 23v202l-2 5q-1 3-2 4 0 7-7 23l-2 5-16 27q-12 17-48 65-41 55-46 60t-18 16l-5 4q-1 0-4 2l-2 1q-1 1-3 2t-3 2q-4 0-4 2-4 0-12 4-5 1-19 2h-80q-43 0-92-2h-4q-1 0-2 6v43l-1 22q-1 27-3 29 0 6-4 10-1 5-8 12t-13 11l-3 2q-6 2-12 3-8 1-35 1h-453q-35-1-39-2z m518-39q3-2 8-7t4-7v-3q2-131 0-264v-265h-171q-24 1-24 1t-2 3-2 4q0 9-8 24-7 13-15 24-6 7-14 13t-12 8q0 1-2 2t-4 2q-4 4-6 4l-2 1q-2 1-3 1-4 4-8 4-15 6-39 6t-39-6q-4 0-8-4-2 0-5-1l-3-1-12-8q-8-4-23-21-8-10-16-25t-10-23q0-6-2-6 0-1-8-2h-33q-29 0-35 0t-10 4-8 8l-4 5 2 259v222q1 37 2 40t4 7l2 1q3 1 39 2h420q45-1 47-2z m151-231v-70q1-21 2-28t4-9q0-1 1-2t1-2 10-11 11-10h4q3-3 9-5t27-1l68-2h97v-157l-4-6q-6-6-8-9t-4-3-11 0-11 1-3 7q-1 9-9 23t-16 25q-6 6-13 12t-10 8-5 3l-3 2q-4 4-6 4l-6 2q-4 4-8 4-14 6-39 6t-39-6q-4 0-8-4l-6-2q-2 0-6-4l-2-1q-3-1-3-3-4-1-12-8t-14-13q-8-10-16-25t-9-23q0-6-2-6 0-2-30-2h-29v394l4 3q2 4 8 10l6 4h80v-96z m92 92q2-1 5-3 18-12 26-20 30-40 45-61 1-2 4-4l2-2 1-2 3-3 2-4q2-5 3-6l8-8 3-5q3-4 3-5 10-10 16-19 4-8 10-16 7-19 7-29v-6h-86l-88 2-5 2q-6 6-8 10l-4 3v178q2 2 23 2 17 0 26-3z m-526-351q22-6 38-22t21-36q2-6 2-18t-2-17q-6-22-21-38t-38-21q-6-1-17-1t-18 1q-22 6-37 21t-21 38q-1 6-1 17t1 18q2 13 10 24t17 18q6 5 15 9t12 5l3 1q3 1 6 2t13 1 17-2z m530 0q13-3 25-11t18-17q17-22 17-47t-12-42-33-29q-9-5-16-7t-17-1q-23 0-41 12t-29 33q-5 9-6 16t-2 18q0 23 12 40t33 29l14 5q3 1 5 1 5 2 15 2t17-2z m-358 396l-2-2q-7-5-9-7t-8-10l-8-8q-8-10-20-22l-12-14q-6-8-9-11t-8-8-4-6l-27-27q-8-10-18-20-9-8-20-23l-3-4q-18-18-20-18l-6 4q-8 8-9 10-4 4-6 4-8 8-26 23-4 4-6 4 0 1-6 8l-5 4-7 5q-6 5-7 5l-23 21q-2 0-14-15-6-6-10-11l-2-3q0-2 4-5l20-16q7-8 21-22 1 0 7-5l7-5 12-11 17-14 18-18q6-6 15-14t10-7l4 6q3 1 6 6l4 4q10 9 15 15l14 16q10 11 12 13 10 10 17 18l4 4q18 21 24 25l15 20 10 11q16 16 22 20l13 18 5 5q11 11 13 14 10 9 15 17 4 5 4 7v2l-4 3q-5 4-9 8l-14 12q-3 0-6-6z" horiz-adv-x="1000" />

<glyph glyph-name="list" unicode="&#xe87b;" d="M8 808h984v-229h-984v229z m0-385h984v-226h-984v226z m0-371h984v-229h-984v229z" horiz-adv-x="1000" />

<glyph glyph-name="money" unicode="&#xe87c;" d="M500 807q99 0 193-38 95-43 155-104 66-68 106-159 38-88 38-190t-38-192q-43-95-106-156-72-71-155-105-93-39-193-39t-192 39q-89 36-156 105-62 64-106 156-38 91-38 192t38 190q42 94 106 159 61 62 156 104 93 38 192 38z m0-922q92 0 167 34 85 39 137 93 56 53 93 135 34 82 34 170 0 85-34 167-34 78-92 136t-138 92q-73 33-167 33t-167-33q-79-33-137-92t-92-137-34-166q0-90 33-170 37-82 93-135 52-54 137-93 75-34 167-34z m0 539q-20 0-31-15-15-11-15-31 0-11 17-17l40-17q31-10 63-27 34-19 34-62 0-36-24-66-22-29-53-37v-36q0-9-9-22-10-7-22-7t-21 7q-10 12-10 22v36q-29 8-53 37-24 32-24 66 0 10 9 20t23 10q11 0 21-9t9-21q0-23 15-33 12-13 32-13t30 13q16 10 16 33 0 4-3 7t-13 10l-2 1-5 2q-20 6-35 12-24 8-63 30-34 18-34 61 0 34 24 66 26 28 53 35v36q0 12 10 24 11 7 21 7t22-7q9-13 9-24v-36q29-8 53-35 24-30 24-66 0-8-6-18l-2-3q-13-11-24-11-5 0-11 3-3 2-10 8-5 4-6 9t-2 12q0 19-16 31-10 15-31 15z" horiz-adv-x="1000" />

<glyph glyph-name="shipping" unicode="&#xe87d;" d="M958 361q14 0 20-11 11-9 11-20v-173q0-37-27-61-22-26-61-26h-48q-9-38-39-61-35-27-72-27-20 0-38 8-15 6-34 19-29 22-39 61h-211q-9-38-39-61-35-27-72-27t-72 27q-30 23-39 61h-159q-8 0-20 8-7 8-7 21t8 21 19 8h159q9 37 40 62t71 25 72-25 39-62h211q9 38 39 62 18 13 35 19t37 6q41 0 72-25t39-62h48q9 0 19 10 11 6 11 19v144h-348q-11 0-19 10-9 8-9 19v231q0 11-10 21-8 8-20 8h-288q-13 0-21 9t-8 19q0 14 8 22t21 8h288q36 0 62-26 25-23 25-61v-14h130q8 0 12-2 8-4 10-8l150-176h44z m-346 0h227l-111 128h-116v-128z m-303-319q26 0 42 17t15 41-15 40q-19 17-42 17t-41-17-17-40 17-41q14-17 41-17z m433 0q27 0 42 17t15 41-16 40-41 17-41-16-16-41 17-41q13-17 40-17z m-548 434q-15 0-20 8-10 8-10 19t10 22q7 7 20 7h127q12 0 22-7 8-12 8-22t-8-18-22-9h-127z m-57-115q-16 0-23 7-8 12-8 20t8 19q11 11 23 11h127q5 0 11-3t8-8q10-8 10-19t-10-20q-5-7-19-7h-127z m112-88q0-12-8-20-10-10-21-10h-127q-10 0-20 10t-11 20 11 20q5 5 9 6t11 2h127q13 0 21-8t8-20z" horiz-adv-x="1000" />

<glyph glyph-name="support" unicode="&#xe87e;" d="M983 346q9-10 9-24 0-10-9-21l-76-82q-2 0-4-2l-2-2-2-1q-12-3-19-3l-2 1q-11 3-15 7l-78 82-1 2q-7 12-7 19 0 10 8 24 9 8 23 8t22-8l22-30q0 79-31 152-29 66-82 124-48 50-124 85-75 29-153 29-82 0-152-29-78-33-124-85-52-52-84-124t-32-152q0-83 31-152 34-77 85-124 47-52 124-84 69-33 152-33 52 0 100 13 43 12 90 36 37 21 80 59 38 38 63 78 6 10 19 13t24-2q10-11 12-22 1-4 0-10t-4-10q-31-50-72-91-47-42-92-68-39-23-106-42-56-14-114-14-93 0-177 35-70 29-144 98-61 61-97 142-35 84-35 178 0 91 35 175 36 81 97 145 68 64 144 95 78 37 176 37t176-37q84-34 144-95 56-56 99-145 34-81 34-175h2l23 30q8 8 23 8 12 0 21-8z m-641-11q3 3 7 9l3 6q1 3 2 4l1 3q1 4 1 6v16q-4 4-6 7t-8 4q-2 2-10 2t-13-2q-7 0-13-7-3 0-8-4l-4-2q-10-8-15-13l-40 44q4 5 13 13l5 5 6 4q6 3 9 6l15 7 6 2q6 2 10 2 10 4 18 4h19q16 0 23-2 14-3 23-6t17-11q10-7 13-15l3-5q5-8 5-11 3-7 3-22v-15q0-1-1-6t-2-6q-3-9-6-15l-1-3q-4-7-6-10l-3-5q-3-3-5-7l-13-13q-4-9-21-21l-35-32v-2h99v-59h-190v46l63 66 23 23q5 4 11 12z m302-150h-70v50h-105v53l109 159h66v-159h29v-53h-29v-50z m-113 103h43v55q0 2 1 7l1 4v5h-2q-2-3-4-8l-2-5q-2-3-7-11l-2-2z" horiz-adv-x="1000" />

<glyph glyph-name="bag-2" unicode="&#xe87f;" d="M853 531l61-615q0-37-26-66-30-27-65-27h-646q-35 0-65 27-26 29-26 66l61 615q0 35 25 66 32 27 66 27h93v15q0 69 49 118 51 51 121 51t119-51q49-48 49-118v-15h93q34 0 66-27 25-31 25-66z m-475 108v-15h244v15q0 25-9 47t-26 39q-34 36-87 36t-86-36q-36-32-36-86z m445-752q15 0 21 9 9 6 9 20l-61 615q0 13-9 21-7 6-10 8-6 3-11 3h-93v-49q16-8 21-19 11-14 11-29 0-23-16-38t-39-15-38 14-15 39q0 17 9 29 5 10 20 19v49h-244v-49q15-7 20-19 9-12 9-29 0-24-14-39t-38-14-39 15-16 38q0 16 10 29 5 11 21 19v49h-93q-12 0-20-10t-9-22l-62-615q0-12 9-20 5-5 10-7t11-2h646z" horiz-adv-x="1000" />

<glyph glyph-name="grid" unicode="&#xe880;" d="M8 808h229v-229h-229v229z m0-378h229v-229h-229v229z m0-378h229v-229h-229v229z m378 756h229v-229h-229v229z m0-378h229v-229h-229v229z m0-378h229v-229h-229v229z m377 756h229v-229h-229v229z m0-378h229v-229h-229v229z m0-378h229v-229h-229v229z" horiz-adv-x="1000" />

<glyph glyph-name="bag-3" unicode="&#xe881;" d="M839 656h-184v59q0 38-27 65t-66 28h-122q-38 0-65-28t-28-65v-59h-186q-25 0-43-18t-18-43v-710q0-26 18-44t43-18h678q26 0 44 18t18 44v710q0 25-18 43t-44 18v0z m-431 59q0 13 9 21t23 9h122q14 0 23-9t9-21v-59h-186v59z m431-830h-678v710h186v-65l1-8q2-9 8-14 8-8 23-8t22 8q5 5 7 14v73h186v-65l1-8q1-9 7-14 8-8 22-8t22 8q6 5 8 14l1 8v65h184v-710z" horiz-adv-x="1000" />

<glyph glyph-name="direction" unicode="&#xe882;" d="M937 521l-172 184q-9 10-21 10h-257l-1 64q0 12-9 20t-23 9-20-9-8-20l-1-64h-339q-13 0-22-9t-10-21v-370q0-12 10-21t22-9h339v-433q0-12 9-21t21-8 22 8 9 21v433h258q12 0 21 10l172 184q8 9 8 21t-8 21z m-207-175h-613v308h613l143-154z" horiz-adv-x="1000" />

<glyph glyph-name="home" unicode="&#xe883;" d="M984 314l-460 482q-10 10-22 10t-23-10l-463-482q-9-9-8-22t10-21 22-9 20 9l42 43v-458q0-13 9-22t22-9h214q13 0 22 8t8 22l1 307h245v-306q0-13 9-22t21-9h215q13 0 22 9t8 22v458l42-43q9-9 22-9t21 8 10 22-9 22z m-147 56v-484h-152v307q0 12-9 21t-23 9h-305q-13 0-21-9t-9-21l-1-307h-154v484l-1 7 339 353 337-352z" horiz-adv-x="1000" />

<glyph glyph-name="magnifier" unicode="&#xe884;" d="M352 837c-60-5-127-27-177-61-101-66-163-172-174-293-7-83 16-171 64-242 62-93 156-152 269-168 32-5 90-3 122 3 57 12 113 36 157 69l15 11 157-157c135-135 158-157 165-159 10-2 13-2 22 0 22 6 34 31 25 51-2 5-49 54-159 164l-155 156 11 15c33 44 57 99 69 157 6 32 8 89 3 122-13 86-49 161-109 220-80 81-192 122-305 112z m95-82c181-38 287-224 229-399-53-159-228-247-387-194-106 35-182 121-206 231-6 30-6 93 0 122 17 78 61 145 123 189 41 29 88 48 137 55 24 3 81 1 104-4z" horiz-adv-x="1000" />

<glyph glyph-name="magnifier-add" unicode="&#xe885;" d="M983-122l-271 273q44 53 68 117 25 67 25 139 0 108-54 201-53 91-143 143-93 55-202 55t-201-55q-90-52-143-143-54-93-54-201t54-201q53-91 143-144 93-55 201-55 74 0 143 27 66 26 120 72l271-273q9-8 22-8t22 9 8 21-9 23z m-577 192q-91 0-170 46-76 45-121 122-46 79-46 170t46 170q45 76 121 121 79 46 170 46t170-46q77-45 122-121 46-79 46-170t-46-170q-45-76-122-121-79-47-170-47z m153 368h-122v123q0 12-9 21t-22 9-21-9-9-21v-123h-123q-13 0-22-9t-9-21 9-22 22-9h123v-122q0-13 9-23t21-9 22 9 9 23v122h122q13 0 22 9t9 22-9 21-22 9z" horiz-adv-x="1000" />

<glyph glyph-name="magnifier-remove" unicode="&#xe886;" d="M983-122l-271 273q44 53 68 117 25 67 25 139 0 108-54 201-53 91-143 143-93 55-202 55t-201-55q-90-52-143-143-54-93-54-201t54-201q53-91 143-144 93-55 201-55 74 0 143 27 66 26 120 72l271-273q9-8 22-8t22 9 8 21-9 23z m-577 192q-91 0-170 46-76 45-121 122-46 79-46 170t46 170q45 76 121 121 79 46 170 46t170-46q77-45 122-121 46-79 46-170t-46-170q-45-76-122-121-79-47-170-47z m153 368h-306q-13 0-22-9t-9-21 9-22 22-9h306q13 0 22 9t9 22-9 21-22 9z" horiz-adv-x="1000" />

<glyph glyph-name="phone-1" unicode="&#xe887;" d="M251 783q34-46 119-176l14-22q18-31-6-79l-14-25q-20-36-34-63 38-55 128-145 83-83 144-128l7 4q70 39 81 45 25 13 48 13 18 0 31-7 72-44 199-132 21-15 24-42t-16-58l-2-3q-16-21-29-36-28-34-64-65-24-21-38-29-18-11-31-11h-2q-101 4-226 80t-272 224q-297 297-304 500 0 27 39 70 43 46 64 62 12 10 32 24l10 7q21 15 48 15 33 0 50-23z m-63-41q-39-27-76-63-36-39-41-53 7-178 284-455 279-276 455-286 17 6 51 43l7 8q41 44 58 69 5 9 3 13-94 67-192 129-7 0-19-6l-14-8q-39-22-72-40l-32-19-33 21q-58 40-154 136-88 88-134 154l-23 30 19 35q22 39 45 80l3 6q6 12 6 19-81 128-126 192h-2q-9 0-13-5z" horiz-adv-x="1000" />

<glyph glyph-name="clock-1" unicode="&#xe888;" d="M500 808q-134 0-248-67-112-66-177-177-67-115-67-249t67-248q65-112 177-177 114-67 248-67t248 67q112 66 177 177 67 115 67 248t-67 248q-65 112-177 177-114 68-248 68z m0-925q-116 0-217 59-97 58-154 156-59 100-59 217t59 217q57 98 154 156 101 59 218 59t216-59q98-57 155-155 59-101 59-218t-59-218q-57-98-155-155-100-59-217-59z m31 445v295q0 13-9 22t-22 9-21-9-9-22v-308q0-13 8-21l1-1q0-1 1-1l153-153q9-9 22-9t21 9 9 22-9 21z" horiz-adv-x="1000" />

<glyph glyph-name="heart" unicode="&#xe889;" d="M9 454q0 120 86 207 83 82 201 84t204-77q86 79 204 77t201-84q86-87 86-207t-86-206l-340-336q-27-26-65-26t-65 26q-2 0-340 336-86 87-86 206z m62 0q0-95 69-162l339-336q21-22 43 0l338 336q69 67 69 162t-69 162q-64 65-157 67t-161-59l-42-38-42 38q-69 61-161 59t-157-67q-69-66-69-162z m91 7q0 54 38 93t93 38q16 0 16-16t-16-16q-40 0-70-28t-29-71q0-16-16-16t-16 16z" horiz-adv-x="1000" />

<glyph glyph-name="heart-1" unicode="&#xe88a;" d="M500-106q-14 0-24 10l-342 330-15 15q-10 10-30 36t-38 53-29 66-13 75q0 121 70 189t192 69q34 0 69-12t66-33 53-37 41-37q20 19 41 37t53 37 66 33 69 12q123 0 192-69t70-189-126-246l-340-329q-10-10-25-10z" horiz-adv-x="1000" />

<glyph glyph-name="earphones-alt" unicode="&#xe88b;" d="M991 257q0 18-2 59-2 45-4 59-13 124-81 224-66 97-170 153-107 56-231 56-129 0-240-63-108-61-174-167-68-109-75-241l-3-72v-13q-2-12-2-18v-206q0-34 24-58t57-24h83q34 0 58 24t24 58v206q0 34-24 57t-58 24h-83q-5 0-12-1l-4-1q1 11 1 21 6 116 65 211 58 93 153 146 97 55 210 55 109 0 202-49 90-48 148-133 59-87 71-196 2-20 4-55-12 2-18 2h-82q-34 0-57-24t-24-57v-205q0-23 12-43t31-29l-198-77v5q0 13-8 21t-22 9h-92q-13 0-22-9t-9-21v-30q0-13 9-23t22-9h93l55 1 315 124q7 3 11 7 21 10 34 30t13 44v205q0 5-2 15l1 2q1 4 1 6z m-901-3h83q9 0 15-6t6-14v-206q0-8-6-14t-15-6h-83q-8 0-13 6t-6 14v206q0 8 6 14t13 6z m718-20q0 8 6 14t14 6h82q8 0 14-6t5-14v-205q0-8-5-14t-14-6h-82q-9 0-14 6t-6 14v205z" horiz-adv-x="1000" />

<glyph glyph-name="credit-card" unicode="&#xe88c;" d="M896 636h-792q-38 0-65-27t-27-65v-457q0-38 27-65t65-27h792q38 0 65 27t27 65v457q0 38-27 65t-65 27z m-792-61h792q13 0 23-9t9-22v-61h-856v61q0 13 10 22t22 9z m792-519h-792q-14 0-23 9t-9 22v274h856v-274q0-13-9-22t-23-9z" horiz-adv-x="1000" />

<glyph glyph-name="action-undo" unicode="&#xe88d;" d="M958-97h-1q-11 0-18 8t-8 20q-2 20-12 49-20 54-58 98-54 61-139 96-105 43-253 43v-175q0-9-5-17t-13-11-17-3-15 7l-399 329q-11 9-11 24t12 24l398 326q6 6 15 6t17-2 13-11 5-17v-172q133-5 236-47t170-120q89-105 110-268 11-83 2-160v-1q-2-11-10-19t-19-7z m-520 376v0q143 0 248-30 89-26 154-74 49-37 89-91-8 62-31 117-26 67-70 116-63 72-161 110t-229 38q-13 0-22 8t-9 22v137l-318-262 318-264v143q0 10 9 20t22 10z" horiz-adv-x="1000" />

<glyph glyph-name="envolope" unicode="&#xe88e;" d="M989 582q0 13-3 18-12 52-74 52h-794q-28 0-54-11t-41-29l-4-4q-10-10-7-26-1-2-1-7v-488q0-25 17-50t41-42 49-16h794q36 0 58 35 19 31 19 73v495z m-871 8h794l-412-328-411 327q7 2 23 1h6z m794-549h-794q-13 0-29 16t-16 30v437l408-326q6-8 18-8t22 8l407 326v-440q0-20-2-28-3-15-14-15z" horiz-adv-x="1000" />

<glyph glyph-name="chart" unicode="&#xe88f;" d="M270 500h-216q-13 0-21-9t-9-22v-615q0-13 9-22t21-9h216q12 0 21 9t9 22v615q0 13-9 22t-21 9z m-32-616h-153v554h153v-554z m369 433h-215q-13 0-22-9t-9-21v-433q0-13 9-22t22-9h215q13 0 22 9t9 22v433q0 13-9 21t-22 9z m-30-433h-154v371h154v-371z m369 924h-215q-13 0-22-9t-9-22v-923q0-13 9-22t22-9h215q13 0 22 9t8 22v923q0 13-8 22t-22 9z m-31-924h-153v863h153v-863z" horiz-adv-x="1000" />

<glyph glyph-name="shopping-cart" unicode="&#xe8ba;" d="M707 576q-5 45-24 85t-52 71q-38 37-85 56t-99 20h-4q-52 0-99-20t-84-56q-32-31-51-72t-24-84h-175v-580q0-47 23-87t63-63 86-23h526q47 0 87 23t64 63 23 87v580h-175z m-264 177h4q51 0 96-24t73-63 36-90h-413q7 49 36 89t73 64 95 24z m384-757q0-32-16-59t-43-43-60-16h-526q-32 0-59 16t-43 43-16 59v526h123v-107q0-10 7-17t16-6h2q9 0 16 6t7 17v107h421v-107q0-10 7-17t16-6h2q10 0 17 6t6 17v107h123v-526z" horiz-adv-x="886.7" />

<glyph glyph-name="phone-2" unicode="&#xe8bb;" d="M209 153q145-176 347-272 48-23 87-36 56-19 107-22h14q74 0 125 53 0 1 1 1v0q12 15 39 42 14 11 29 28 32 35 32 74t-32 73l-123 123q-31 32-72 32t-73-32l-73-73-20 10q-13 6-22 13-98 61-185 168-39 49-62 99 19 17 54 54 7 6 19 18 34 34 34 73t-34 74l-60 61-21 21q-28 28-42 41-32 32-72 32t-72-32l-77-77q-41-40-46-100-6-71 28-163 27-73 69-142t101-141z m-149 442q4 41 32 70l76 76q19 16 39 16 17 0 36-17 21-19 40-40l82-82q20-20 20-39t-20-38l-19-19q-22-24-56-55-1 0-1-1-11-11-13-24-1-8 3-21h1v-1q20-53 71-117 91-112 196-180l28-13 24-14q9-5 20-5 17 0 31 14l75 76q20 18 38 18t36-18l123-123q19-18 19-38t-20-39q-8-9-26-27-23-21-44-44-32-38-87-38-7 0-10 1-45 3-95 19-36 12-81 33-191 93-331 259-110 134-161 269-30 81-26 142z" horiz-adv-x="1000" />

<glyph glyph-name="percent-circle" unicode="&#xe8bf;" d="M341 331q-39 0-72 19t-52 52-19 72 19 72 52 52 72 19 72-19 52-52 19-72v0q0-39-19-72t-52-52-72-19v0z m0 213q-28 0-48-20t-21-49 21-49 49-20 48 20 20 48v0 0q0 29-20 49t-49 21v0z m318-530q-39 0-72 19t-52 52-19 72 19 72 52 52 72 19 72-19 52-52 19-72v0q0-39-19-72t-52-52-72-19v0z m0 213q-28 0-48-20t-21-49 21-49 48-20 48 20 21 48v0 0q0 28-20 48t-49 22v0z m-304-162v0q-16 0-26 10t-11 27q0 11 7 21l289 426q5 8 13 12t17 5q16 0 27-11t10-26q0-11-6-20l-290-427q-5-8-12-13t-18-4v0z m144-242q-133 0-247 67-111 66-177 177-67 115-67 249t67 248q66 112 177 177 114 67 247 67t248-67q111-66 177-177 68-115 68-248t-67-248q-65-112-177-177-115-68-249-68z m0 912q-113 0-211-57-94-56-150-151-57-97-57-211t57-211q56-95 150-151 98-57 211-57t211 57q95 56 150 151 58 97 58 211t-57 211q-56 95-151 151-97 57-211 57z" horiz-adv-x="1000" />

<glyph glyph-name="pulley" unicode="&#xe8c1;" d="M500 274q-34 0-58-24t-24-58 24-58 58-23 58 23 24 58-24 58-58 24z m0-123q-19 0-30 11t-11 30 12 30 30 12 29-12 11-30-11-30-30-11z m246 316v94q0 67-33 123t-89 90-124 34-123-34-90-90-33-123v-94q-57-50-89-120-34-73-34-155 0-100 50-186 49-84 132-133 86-50 187-50t187 50q83 49 132 133 50 86 50 186 0 81-34 153-31 67-89 122z m-246 299q57 0 104-27t74-74 27-104v-61q-5 3-17 10-17 10-24 15v36q0 45-22 83t-59 60-83 22-82-22-60-60-22-83v-36q-7-5-24-15-12-7-17-10v61q0 57 27 104t74 74 104 27z m123-225q-55 20-122 20t-124-20v20q0 35 16 63t45 44 62 17 63-17 44-44 16-63v-20z m-123-636q-78 0-145 39-65 38-103 103-39 67-39 145t39 145q38 66 103 104 67 39 145 39t144-39 104-103q39-67 39-146t-38-145-104-104-145-38z" horiz-adv-x="1000" />

<glyph glyph-name="password-lock" unicode="&#xe8c2;" d="M960 299h-99v115q0 13-9 23t-23 10h-542v81q0 58 29 107t77 77 107 29 107-29 78-77 28-107h66q0 76-38 141-37 64-101 101t-140 38-140-38-101-101q-38-65-38-141v-81h-49q-13 0-23-10t-10-23v0-115h-99q-13 0-22-10t-10-23v0-262q0-14 10-24t22-9h99v-115q0-13 10-23t23-10h657q13 0 23 10t9 23v115h99q13 0 23 9t9 24v262q0 14-9 23t-23 10v0z m-755 83h590v-83h-590v83z m590-493h-590v82h590v-82z m131 147h-852v198h852v-198z" horiz-adv-x="1000" />

<glyph glyph-name="pin" unicode="&#xe8c4;" d="M500-177l-17 25q-28 39-87 132-91 146-147 261-78 159-78 237 0 90 45 166 43 75 118 119 77 45 166 45t166-45q75-44 118-119 45-76 45-166 0-78-78-237-56-115-147-261-59-93-87-132z m0 943q-78 0-146-39-65-39-103-104-40-67-40-145 0-90 121-307 71-129 168-275 97 146 169 275 120 217 120 307 0 78-40 145-38 65-103 104-68 39-146 39z m0-432q-39 0-72 19t-52 53-20 72 20 72 52 53 72 20 72-20 53-53 19-72-19-72-53-53-72-19z m0 247q-28 0-51-14t-38-38-14-51 14-52 38-37 51-14 52 14 37 37 14 52-14 51-37 38-52 14z" horiz-adv-x="1000" />

<glyph glyph-name="rotulo" unicode="&#xe8c6;" d="M992 314v1q0 99-37 188t-107 160-160 107-188 38-188-38-160-107-107-160-37-188 37-189 107-159 160-107 188-37h6q1 0 2 1h3v1h1l4 1q0 1 1 1l3 2 466 466t0 2h1v1l1 2h1v2h1v2l1 2v2q1 0 1 1v5z m-496-314q-84 1-155 45-70 42-110 112-42 72-42 156t43 158q41 71 112 113 73 42 158 42t156-42q70-40 112-109 44-72 45-156-111-33-198-120-84-84-121-199z m41-72q12 65 43 124t78 106 106 77 123 43z m335 406q-5 96-56 178-51 79-132 125-85 48-182 48-101 0-187-51-84-49-133-133-51-87-51-188 0-97 47-181 46-82 126-132 81-52 177-57-5-27-7-62-80 5-152 37t-129 90q-61 61-94 140t-33 167 33 167 95 141 140 93 166 33 167-33 140-93q57-57 90-130t37-152q-34-2-62-7z m-413-144l-110 110q-2 2-4 2t-6 0-11-8-8-12 2-9l59-59-82 26q-13 4-18 3t-13-9-9-13 2-10l109-109q5-3 11-2t12 7 7 12-2 10l-59 58 92-26q12-3 23 8 6 6 8 11t-3 10z m102 93q-1 5-5 10t-11 7-10-3l-46-47-29 30 25 26q5 3 3 9 0 4-5 9t-10 5q-3 2-8-3l-26-25-30 29 47 46q5 3 3 9t-7 11-10 6-9-3l-62-61q-4-4-6-11t3-9l109-109q4-4 10-3t10 6l61 61q4 4 3 10z m123 133l-71 139-1 3q-3 2-14 2-8-3-14-9-7-7-4-14l63-114-72 44q-4 3-10 1-8-4-11-8t-6-9 0-10l46-71-116 62q-5 4-12-4t-10-15 3-13q0-2 2-2l140-71q5-3 12-1t14 10q6 6 9 13t0 14l-33 49 51-32q6-4 13-1t13 9q7 9 9 14 2 9-1 14z" horiz-adv-x="1000" />

<glyph glyph-name="comida-organica" unicode="&#xe8c7;" d="M346-153q1 0 4-1 50-12 78-16 46-7 94-7 68 0 125 15 51 13 102 41 38 20 98 60l145 100-16 23q-29 43-78 57t-95-4q-25 68-83 114t-132 54q5 59 27 113t58 99q41-27 92-23t88 41q43 43 66 99t23 119v77h-76q-61 0-117-24t-99-66q-38-37-42-89t24-94q-48-56-74-124-29 72-74 124 25 38 25 81 0 28-11 54t-31 48q-44 44-100 67t-117 23h-77v-77q0-62 23-118t67-100q36-36 87-41t93 23q37-46 59-100t26-112q-50-6-93-30t-77-62q-46 28-81 31-30 1-63-13-25-11-68-39h-138v-289h28q102 0 183-10 47-7 117-22z m344 830q35 35 81 53t95 19h19v-18q0-50-19-96t-54-80q-19-20-46-25t-52 8l98 98-40 41-99-99q-11 25-7 52t24 47z m-247-99l-98 99-42-41 99-98q-25-12-52-8t-47 25q-35 35-53 80t-19 96v18h19q50 0 95-19t80-53q20-20 25-47t-7-52z m115-351q67 0 121-40t74-102q-39-22-63-31-17 39-53 62t-79 24h-101q-21 0-38 12l-4 3q-5 3-7 5 29 32 68 49t82 18z m-492-115h96l19 12q30 20 46 28 28 13 46 12t47-17q22-12 68-43 30-21 69-21h101q24 0 45-13t32-34q-53-12-99-11-62 1-127 23l-15 5-18-56 16-4q75-26 154-26 66 0 135 22t129 65q23 15 51 14t48-16l-95-64q-59-41-99-62-46-24-90-35t-103-10q-46 0-88 7-28 4-76 15-68 16-116 23-77 11-176 12v174z" horiz-adv-x="1000" />

<glyph glyph-name="estrela" unicode="&#xe8c8;" d="M852 289l-225 32-101 205q-5 11-16 14t-21-1-15-13l-101-205-225-32q-8-1-14-7t-9-13q-4-15 7-28l163-160-37-224q-2-8 1-16t10-12q14-11 29-3l202 107 202-107 13-3q9 0 16 5t10 13 1 16l-37 224 163 160q11 13 7 28-2 8-8 13t-15 7z m-198-178q-9-9-7-24l31-183-165 86q-13 7-26 0l-164-86 30 183q2 15-6 24l-134 130 184 26q14 3 21 16l82 166 82-166q6-13 21-16l184-26z m-154 500q12 0 21 8t8 19v141q0 12-8 20t-21 9-20-9-8-20v-141q0-11 8-19t20-8z m426 47q-10 7-21 5t-18-11l-85-112q-7-10-5-22t10-17 18-6q6 0 12 3t10 7l84 114q7 9 6 20t-11 19z m-750-163q9 0 18 6t10 17-6 22l-84 112q-8 10-19 11t-20-5-11-19 5-20l85-114q8-10 22-10z" horiz-adv-x="1000" />

<glyph glyph-name="fazer-compras" unicode="&#xe8c9;" d="M829 162q0-24-17-41t-41-17-40 17-17 41 17 41 40 17 41-18 17-40z m163 0v-12q0-93-100-208-30-35-65-67-27-25-32-27l-24-21-24 21q-5 2-31 27-35 32-65 67-101 116-101 208v12q0 60 30 110t81 80 110 30 111-30 80-80 30-110z m-77 0q0 39-19 72t-53 52-72 20-72-20-52-52-20-72v-12q0-49 52-120 36-49 92-102 55 51 93 102 51 71 51 120v12z m-29 646h-772l-106-354v-6q0-25 10-49t28-42 41-26v-393q0-31 16-58t42-42 57-15h457q-42 40-66 68l-7 9h-384q-16 0-27 11t-12 27v79h344q-19 39-28 77h-316v230q38 8 64 35 17-18 41-28t50-10 49 10 42 28q18-18 42-28t49-10q14 0 21 2 42 66 115 105-5 10-5 22v41h-77v-39q0-22-16-38t-38-16-38 16-16 38v39h-77v-41q0-21-15-37t-36-15-36 15-16 37v41h-77v-41q0-21-15-37t-37-15-35 13-17 32l86 288h658l86-286q-2-13-5-19 37-20 63-45 19 32 19 69v6z" horiz-adv-x="1000" />

<glyph glyph-name="gluten" unicode="&#xe8ca;" d="M855 808q-35 0-65-18t-48-48-18-65v-96l-30-31q-8 49-42 83l-117 116-56-56q-28-28-37-66t0-75 37-65l76-75-66-66q-7 50-41 84l-116 116-56-56q-28-28-38-66t0-75 38-66l75-76-66-66q-5 49-41 84l-116 117-56-56q-28-28-38-66t0-75 38-66l76-76-140-140 40-40 140 140 76-76q21-21 48-32t55-11 55 11 49 32l56 56-118 116q-33 35-83 42l66 66 76-76q20-21 47-32t56-10 56 10 47 32l56 56-116 116q-34 35-83 42l66 66 75-76q21-21 48-32t55-11 56 11 47 32l56 56-116 116q-35 35-84 41l32 32h95q35 0 66 17t48 48 17 66v137h-137z m-258-356l-76 76q-26 26-26 63t26 62l14 15 76-76q26-25 26-62t-26-63z m-205-204l-75 76q-25 26-25 63t25 62l15 15 76-76q26-25 26-62t-26-63z m-204-203l-76 74q-25 26-25 63t25 63l16 15 76-76q26-25 26-62t-26-63z m181-26l76-76-16-16q-25-25-61-25t-63 25l-76 76 15 16q26 26 63 26t62-26z m204 204l76-76-15-15q-26-25-62-25t-63 25l-76 75 15 16q26 26 63 26t62-26z m204 204l75-76-14-15q-26-25-62-25t-63 25l-76 76 15 15q26 26 63 26t62-26z m158 244q0-31-21-52t-53-21h-78v79q0 30 21 51t51 21h79v-78h1z" horiz-adv-x="1000" />

<glyph glyph-name="arrow-forward-right" unicode="&#xe8cc;" d="M989 315q0 13-9 22l-302 306q-10 9-22 9t-21-10-10-22 9-21l250-253h-842q-13 0-22-9t-9-22 9-22 22-9h842l-250-252q-9-10-9-23t10-21 21-9 22 9l302 305q9 9 9 22z" horiz-adv-x="1000" />

<glyph glyph-name="category-home" unicode="&#xe900;" d="M203-174q-17 5-33 17t-24 28l-1 2q-5 9-6 19-2 13-3 52v417l-30-30q-32-30-35-30-5-1-14 0t-15 3q-5 5-8 13t-4 14 3 14 225 231 229 228q4 4 13 4t15-4 228-228 224-231 3-14-3-15-9-11-14-4-15 0q-3 0-35 30l-30 30v-419q-1-42-2-49-5-24-23-42t-43-25q-11-3-296-3t-297 3z m145 247v154q1 36 2 40 9 13 18 17 5 2 132 2t133-2 10-7 7-10 2-40v-341h58q63 0 67 2 8 2 15 7t9 13 2 261v255l-151 153q-150 152-152 152t-152-152l-151-153v-255q0-255 3-261t8-13 14-8 67-1h59v187z m242-19v167h-180v-335h180v168z" horiz-adv-x="1000" />

<glyph glyph-name="category-motors" unicode="&#xe901;" d="M246 56q-23 6-43 23t-29 40l-3 11-136 1-7 4q-3 2-9 11-3 4-3 20t-1 104v118l4 5q5 8 10 10t10 3 30 1h34l41 78q36 63 46 83l1 1q4 5 13 6 12 2 54 2h342l7-5q4-2 15-16l49-68 56-80 63-1q51 0 68-2t33-7q27-11 51-35t33-50q8-19 10-34t1-65q0-45 0-55t-5-13q-6-9-9-11l-7-4-136-1-3-11q-8-22-28-40t-45-23q-17-5-37-3t-36 11-31 25-20 32l-4 9h-250l-4-9q-7-22-28-41t-45-24q-10-2-25-2t-27 2z m45 64q12 6 19 17t6 25q0 19-12 31t-31 13q-23 0-36-19t-6-40q1-7 9-16t15-11 18-3 18 3z m454 0q7 3 15 11t10 16q7 21-6 40t-37 19q-18 0-30-13t-13-31q0-14 7-25t19-17q7-3 18-3t17 3z m-571 82q5 15 20 32t29 24 26 9 29 2 29-5 23-10q14-10 26-24t15-28l4-8h250l4 8q4 14 16 28t26 24q12 8 24 11t28 4 28-2 26-9 30-24 20-32l2-8h94v36q0 39-4 54t-21 32-37 24l-11 4-773 1v-151h94z m204 258v53h-148l-26-52q-26-52-26-53t100-1h100v53z m234 0l-35 53h-138v-106h208z" horiz-adv-x="1000" />

<glyph glyph-name="category-music" unicode="&#xe902;" d="M320-174q-8 3-17 19-3 10 1 20t12 17q3 2 14 2t65 1l73 1v123l-15 2q-83 12-150 61t-104 127q-24 49-32 113-2 22-2 76 0 40 1 49t2 14q10 19 29 19 6 0 14-4t11-8 5-15 1-58v-1q1-54 3-73t8-41q13-44 41-83t64-65q14-10 37-22t38-16q36-12 81-12t81 12q15 4 38 16t38 22q37 27 64 66t40 82q7 23 9 41t3 73v1q1 49 2 58t2 15q5 5 13 8t14 4q19 0 28-19 2-4 3-14t0-49q0-54-2-76-8-64-32-113-37-77-104-127t-150-61l-15-2v-123l74-1q54 0 65-1t14-2q11-10 13-24t-8-24l-1-1q-4-6-12-7-11-2-49-3h-128l-149 1q-28 1-31 2z m155 306q-70 8-121 57t-63 119q-4 17-4 161t4 162q8 50 39 91t75 64q24 13 58 19 13 2 37 2t37-2q63-10 113-59 37-38 52-84 6-18 8-29 2-15 3-50v-228q-1-35-3-50-2-11-8-29-16-47-50-82t-81-51-96-11z m62 66q35 9 65 36t40 61q9 27 9 45v6h-34q-29 0-37 2t-14 10q-3 4-3 7t-1 12 1 12 3 7q6 8 14 10t37 2h34v31h-34q-29 0-37 2t-14 9q-3 4-3 7t-1 12 1 12 3 7q6 8 14 10t37 2h34v30h-34q-29 0-37 2t-14 11q-3 4-3 7t-1 11 1 12 3 8q6 8 14 10t36 2h35l-1 13q-5 58-47 97-30 29-66 37-12 4-37 4t-37-4q-27-7-51-25t-41-44q-9-15-15-36t-7-36v-6h35q28 0 36-2t14-10q3-5 4-9t1-11-1-11-4-7q-6-9-14-11t-37-2h-34v-30h34q29 0 37-2t14-10q3-4 4-8t1-11-1-11-4-8q-6-7-14-9t-37-2h-34v-31h34q29 0 37-2t14-10q3-4 4-7t1-12-1-11-4-7v-1q-6-8-14-10t-37-2h-34v-6q0-16 7-37t15-36q36-55 100-71 11-2 33-2t33 4z" horiz-adv-x="1000" />

<glyph glyph-name="category-gifts" unicode="&#xe903;" d="M336-55q-6 1-11 7t-8 14q-1 3-1 171l-1 164q-1 0-10-3l-15-5q-25-9-59-15-29-6-104-18-43-6-54-6t-19 4-11 15-12 46q-13 59-17 83-4 29-4 68t4 68q4 27 17 83 11 48 13 52 8 12 21 15 8 2 78-9t110-19q22-5 44-13t65-27l11-5q27-11 34-14t8 0q16 11 37 18l2 1q11 3 19 4t29 1 28-1 19-5q23-8 37-18 1-2 8 0t31 13l15 6q46 20 65 27 21 8 43 13 41 9 111 19t77 9q13-3 21-15 1-2 5-17 5-18 8-35 13-53 17-82 3-25 3-69t-3-68q-4-28-17-83-8-35-12-45t-11-15-18-5-55 6q-75 12-104 18-34 6-59 15l-24 8-1-168-2-168-4-8q-7-9-17-13t-21 1q-3 1-50 38l-24 19-67 55-21-16q-25-21-48-40l-12-9q-36-29-47-37-15-11-21-13t-16 3z m138 174l13 10h27l21-16q28-24 45-38l42-33v287l-16 8-16 5q-3 0-4-1-16-11-37-18-23-7-48-7t-49 7q-25 8-37 18-1 1-4 1l-15-5-17-8v-287l42 33q17 14 45 38z m-247 223q41 10 104 35l16 7q19 9 19 10l-5 11q-8 16-11 30t-3 35 3 36 11 30l5 12-10 5q-13 6-25 10-58 26-104 37-20 5-76 13-54 8-55 6t-9-38q-8-39-10-54-3-21-3-56t3-56q2-15 10-54 8-37 9-39t55 7q51 8 76 13z m686 16q9 44 12 63t2 49q0 36-3 57-2 15-9 53t-9 39-49-5q-42-7-74-12-48-10-113-39l-35-15q-1 0 2-5l3-7q8-15 11-29t3-37-3-36-11-29l-2-5q-4-6-3-7t13-5l22-11q61-25 105-35 29-6 75-13 53-9 55-8t4 11 4 26z m-374 29q25 13 38 34t13 49-13 49-38 35l-14 7h-48l-15-7q-18-9-31-24t-18-34q-4-17-1-37t10-33 24-28 31-16q10-2 28-1 15 0 20 1t14 5z" horiz-adv-x="1000" />

</font>
</defs>
</svg>
